<svg width="1331" height="537" viewBox="0 0 1331 537" fill="none" xmlns="http://www.w3.org/2000/svg">
<path d="M1319.9 5.24864C1303.66 1.79508 1277.94 -7.73675 1234.63 12.7083C1227 49.3161 1231.18 71.4189 1237.09 100.153C1264.77 112.447 1323.47 98.4948 1323.47 98.4948C1323.47 98.4948 1340.82 42.409 1319.9 5.24864Z" fill="#2D46B9"/>
<path d="M1237.83 83.4374L1227 108.165L1246.69 99.4619L1237.83 83.4374Z" fill="#2D46B9"/>
<path d="M1275.36 86.6145C1275.36 86.6145 1275.23 89.3774 1277.82 89.3774C1280.4 89.3774 1280.4 85.9238 1280.4 85.9238L1275.36 86.6145Z" fill="#FF55BE"/>
<path d="M1285.32 66.3076L1282.98 86.8908H1273.02L1269.94 66.3076H1285.32Z" fill="#D9D9D9"/>
<path d="M1285.32 66.3076L1282.98 86.8908H1273.02L1269.94 66.3076H1285.32Z" fill="#D4018D"/>
<path d="M1269.94 66.3076C1269.94 66.3076 1263.42 61.887 1264.65 45.7244C1265.76 29.5617 1285.81 27.0751 1289.75 34.9493C1293.69 42.8234 1292.09 59.8149 1285.32 66.3076C1276.96 67.2746 1269.94 66.3076 1269.94 66.3076Z" fill="white"/>
<path d="M1273.76 66.5839C1273.76 66.0314 1271.17 46.6914 1271.17 46.6914V45.8625L1274.49 66.5839H1273.76Z" fill="#FF55BE"/>
<path d="M1280.28 66.722C1280.28 66.4457 1282.62 46.0007 1282.62 46.0007L1282.86 45.5862L1280.77 66.722H1280.28Z" fill="#FF55BE"/>
<path d="M1269.33 48.6254L1272.77 47.1058L1274.62 48.6254C1274.62 48.6254 1276.96 46.9677 1276.83 47.1058C1276.71 47.2439 1278.43 48.6254 1278.43 48.6254L1280.65 46.8295L1282.37 48.4872C1282.37 48.3491 1284.71 46.8295 1284.71 46.8295L1285.94 48.9017C1285.94 48.9017 1270.43 48.9017 1269.33 48.6254Z" fill="#2D46B9"/>
<path d="M1270.19 67.689L1284.58 73.0766L1284.34 74.7343L1270.56 70.4519L1270.19 67.689Z" fill="#FF55BE"/>
<path d="M1270.8 72.1096L1284.21 75.9776L1283.97 77.9116L1271.05 73.6292L1270.8 72.1096Z" fill="#FF55BE"/>
<path d="M1271.3 75.9776L1283.85 79.9837L1283.6 81.7796L1271.54 77.359L1271.3 75.9776Z" fill="#FF55BE"/>
<path d="M1271.79 78.8787L1283.35 83.5755L1283.23 84.8188L1272.28 82.3322L1271.79 78.8787Z" fill="#FF55BE"/>
<path d="M1261.33 57.6046L1261.94 58.986L1255.3 63.2685L1254.07 60.5056L1261.33 57.6046Z" fill="white"/>
<path d="M1260.71 40.8894V39.6461L1254.07 37.2977L1252.72 39.6461L1260.71 40.8894Z" fill="white"/>
<path d="M1270.93 26.7989L1272.28 26.3844L1271.66 23.6216L1269.57 24.5886L1270.93 26.7989Z" fill="white"/>
<path d="M1286.06 24.4505L1287.41 25.2793C1287.41 25.2793 1294.55 12.7083 1294.3 12.7083C1294.06 12.7083 1292.21 11.6032 1292.21 11.6032L1286.06 24.4505Z" fill="white"/>
<path d="M1297.01 42.5471L1308.82 40.8894L1308.45 43.5141H1296.64L1297.01 42.5471Z" fill="white"/>
<path d="M1294.8 57.6046L1296.64 59.1242L1298.12 57.6046L1295.41 55.9469L1294.8 57.6046Z" fill="white"/>
<path d="M299.138 150.988C283.757 147.673 259.64 138.694 218.913 158.034C211.653 192.431 215.714 213.291 221.251 240.366C247.213 251.97 302.46 238.709 302.46 238.709C302.46 238.709 318.825 186.076 299.138 150.988Z" fill="#2D46B9"/>
<path d="M300.428 268.708L290.215 292.054L308.795 283.903L300.428 268.708Z" fill="#2D46B9"/>
<path d="M249.678 199.084C249.678 199.084 257.183 195.078 258.783 191.072C260.506 187.066 264.566 170.903 264.566 170.903C264.566 170.903 268.75 170.35 268.996 176.981C269.242 183.75 268.75 191.762 270.472 192.868C272.195 193.973 286.222 195.216 286.222 195.216L279.331 224.64L253 217.733C253.246 217.733 247.832 215.799 249.678 199.084Z" fill="white"/>
<path d="M236 197.868L249.412 194L251.627 218.037H236V197.868Z" fill="#FF55BE"/>
<path d="M1069.97 393.895C1067.38 409.367 1060.12 433.819 1075.63 474.985C1103.19 482.307 1136.53 478.162 1158.31 472.637C1167.66 446.39 1156.96 390.442 1156.96 390.442C1156.96 390.442 1098.02 373.865 1069.97 393.895Z" fill="#2D46B9"/>
<path d="M1145.64 471.946L1164.34 482.306L1157.82 463.519L1145.64 471.946Z" fill="#2D46B9"/>
<path d="M1097.53 403.152H1081.65V405.777H1097.53V403.152Z" fill="white"/>
<path d="M1127.18 403.013H1101.1V406.052H1127.18V403.013Z" fill="#FF55BE"/>
<path d="M1136.04 410.611H1109.96V413.65H1136.04V410.611Z" fill="white"/>
<path d="M1146.25 418.208H1120.17V421.248H1146.25V418.208Z" fill="#FF55BE"/>
<path d="M1097.53 426.221H1081.66V428.845H1097.53V426.221Z" fill="white"/>
<path d="M1127.18 425.944H1101.1V428.984H1127.18V425.944Z" fill="#FF55BE"/>
<path d="M1129.4 433.542H1110.2V436.581H1129.4V433.542Z" fill="white"/>
<path d="M1123.86 456.888H1110.2V459.927H1123.86V456.888Z" fill="white"/>
<path d="M1146.38 441.278H1120.29V444.317H1146.38V441.278Z" fill="#FF55BE"/>
<path d="M1134.93 448.876H1120.29V451.915H1134.93V448.876Z" fill="white"/>
<path d="M1134.93 448.876H1120.29V451.915H1134.93V448.876Z" fill="white"/>
<path d="M109.803 199.295C109.803 199.295 108.894 191.473 102.684 191.813C96.4749 191.983 94.3546 197.084 94.2031 200.315C94.0517 203.546 101.927 207.796 105.259 211.197C108.591 214.598 105.411 222.76 101.473 221.909C95.4147 220.549 98.5952 215.108 98.5952 215.108L94.9604 214.088C94.9604 214.088 90.5683 223.61 100.867 223.95C111.166 224.29 110.106 211.877 106.016 209.157C102.079 206.436 93.2944 199.975 97.9894 195.894C102.684 191.813 106.471 196.744 106.471 199.465C107.682 199.295 109.803 199.295 109.803 199.295Z" fill="#2D46B9"/>
<path d="M101.321 189.433V225.65H103.896L102.684 190.113L101.321 189.433Z" fill="#2D46B9"/>
<path d="M298.511 63.2662L308.961 48.8132L305.477 49.1533L297.147 60.8857L290.029 49.1533H285.486L295.027 63.4363V63.6063H286.394V65.6467L295.027 66.1569L295.179 71.2579H286.394V73.1283L295.179 73.4684V82.4803L297.753 81.6301L298.056 73.6384L308.203 73.8084V71.2579H298.208L298.359 66.3269L308.203 66.837V63.6063H298.511V63.2662Z" fill="#2D46B9"/>
<path d="M332.882 322.113C332.428 322.113 332.276 321.773 332.276 321.603C332.276 321.263 332.428 320.923 332.579 320.243C332.73 319.392 333.033 319.562 333.336 319.562C333.639 319.562 334.548 319.732 335.76 319.902C336.971 320.073 338.637 320.413 339.546 320.413C340 320.413 340.152 320.753 340.152 320.923C340.152 321.093 340.152 321.263 340.152 321.433C339.697 330.275 335.608 332.145 333.033 332.145C331.216 332.145 325.007 330.445 325.007 320.583C325.007 309.19 330.762 308 332.882 308C337.274 308 338.94 312.081 339.091 312.421C339.243 312.761 339.394 313.441 339.546 313.781V313.951C339.546 314.121 339.394 314.121 339.091 314.461C338.637 314.801 337.577 315.312 336.971 315.652C336.365 315.992 335.911 316.502 335.305 316.842C335.002 317.012 334.851 317.182 334.699 317.352C334.548 317.352 334.548 317.522 334.396 317.522C334.245 317.522 334.245 317.522 334.094 317.522C333.791 317.522 333.791 317.182 333.639 317.012C333.488 316.672 333.185 315.822 332.428 315.822C331.065 315.822 330.61 318.712 330.61 320.583C330.61 322.453 330.459 325.514 332.428 325.514C333.336 325.514 333.791 324.664 334.094 323.813C334.245 323.303 334.245 322.793 334.245 322.113L333.639 321.943C333.639 322.283 333.185 322.283 332.882 322.113Z" fill="#2D46B9"/>
<path d="M356.056 320.753C356.056 325.514 354.238 332.825 349.543 332.825C343.031 332.825 342.576 323.813 342.576 320.243C342.576 310.721 346.817 308.51 349.392 308.51C355.601 308.51 356.056 315.992 356.056 320.753ZM350.755 321.093C350.755 319.392 350.3 317.862 349.392 317.862C348.332 317.862 347.877 320.073 347.877 321.433C347.877 322.793 348.029 324.493 349.089 324.493C350.452 324.323 350.755 322.623 350.755 321.093Z" fill="#2D46B9"/>
<path d="M374.836 320.243C374.836 322.453 374.23 332.315 366.354 332.315C362.417 332.315 360.448 329.085 359.388 326.024C358.782 324.154 358.479 322.113 358.327 319.563C358.327 313.611 362.114 308.17 365.9 308.17C367.566 308.17 368.929 308.17 369.989 308.85C373.927 311.911 374.836 318.542 374.836 320.243ZM372.412 320.243C372.412 314.802 370.141 310.211 366.657 310.211C365.597 310.211 364.688 310.041 363.931 311.061C363.022 312.081 360.296 314.632 360.296 319.903C360.296 325.004 361.811 330.445 366.203 330.445C370.595 330.615 372.412 325.684 372.412 320.243Z" fill="#2D46B9"/>
<path d="M378.017 331.465C378.017 331.295 378.017 331.295 378.017 331.125C378.017 330.955 378.017 330.615 378.017 330.105C378.017 329.424 377.866 324.323 377.866 321.943C377.866 319.732 377.866 316.672 377.866 315.312C377.866 313.951 377.714 311.061 377.714 310.21C377.714 309.36 377.714 308.85 378.017 308.85C378.017 308.85 378.017 308.85 378.169 308.85C378.32 308.85 378.472 309.02 378.623 309.02C378.926 309.02 379.532 309.02 379.835 309.02C380.289 309.02 380.592 309.02 381.046 309.02C382.409 309.02 383.167 309.02 384.075 309.19C384.833 309.36 386.196 309.19 388.77 311.741C391.345 314.291 391.648 318.032 391.648 321.093C391.648 323.983 390.285 328.574 388.165 330.275C386.044 331.805 382.107 332.145 381.349 332.145H378.32C378.017 331.975 378.017 331.805 378.017 331.465ZM382.864 318.372C382.864 320.413 383.015 321.943 383.015 323.473C383.015 324.153 383.015 326.024 383.015 327.724C383.015 328.744 383.015 329.765 383.015 330.955C384.378 331.125 385.59 330.785 386.65 330.105C388.467 329.084 390.436 326.534 390.436 321.263C390.436 315.992 388.619 313.441 386.802 312.081C385.741 311.401 384.53 311.061 383.167 310.891L383.015 313.951C382.864 315.482 382.864 317.352 382.864 318.372Z" fill="#2D46B9"/>
<path d="M327.13 346.088C327.13 347.788 326.827 353.57 326.827 355.27C326.827 356.97 326.978 362.752 326.978 363.602C326.978 363.772 326.978 363.942 326.978 364.112C326.978 364.452 326.827 364.622 326.675 364.622C326.524 364.792 326.07 364.792 325.767 364.792C324.858 364.792 325.009 364.962 325.009 363.432C325.009 362.241 325.161 354.42 325.161 352.209C325.161 349.999 325.464 343.708 325.312 342.857C325.312 342.687 325.312 342.347 325.312 342.177C325.312 341.667 325.464 341.327 325.767 341.327C325.918 341.327 326.373 341.327 326.827 341.327C327.13 341.327 327.13 341.497 327.13 341.837C327.13 342.007 327.13 342.347 327.13 342.687C327.13 343.027 327.13 344.218 327.13 346.088Z" fill="#2D46B9"/>
<path d="M335.459 341.327C338.185 341.327 344.395 343.367 344.395 354.08C344.395 363.942 336.216 364.452 335.005 364.452C333.793 364.452 331.673 364.452 331.067 364.452C330.613 364.452 330.461 363.942 330.461 363.262C330.461 362.922 330.461 362.752 330.461 362.411C330.461 361.561 330.31 360.031 330.31 359.351C330.31 358.671 330.158 357.14 330.158 354.42C330.158 351.869 330.461 350.169 330.461 347.618C330.461 344.898 330.461 342.687 330.461 342.007C330.461 341.327 331.673 341.497 332.43 341.497H333.49C333.945 341.327 334.702 341.327 335.459 341.327ZM336.974 356.12C337.731 355.27 338.488 354.08 338.488 352.379C338.488 350.679 337.731 349.659 337.125 348.979C336.671 348.639 336.216 348.298 335.762 348.128C335.762 348.469 335.762 348.809 335.762 349.319C335.762 350.509 335.611 351.699 335.611 352.719C335.611 353.4 335.611 354.59 335.611 355.44C335.611 355.95 335.611 356.63 335.611 357.14C336.065 356.97 336.519 356.63 336.974 356.12Z" fill="#2D46B9"/>
<path d="M348.03 354.08C348.03 354.76 348.181 355.1 348.181 355.95V359.861C348.181 360.371 348.181 361.051 348.181 361.561C348.181 361.901 348.181 362.071 348.181 362.411C348.636 362.411 348.939 362.411 349.242 362.411C349.847 362.411 350.605 362.411 351.211 362.411C352.271 362.411 353.331 362.411 354.391 362.411C355.451 362.411 356.511 362.241 357.269 362.241C358.026 362.241 358.783 362.241 359.086 362.241C359.389 362.241 359.389 362.411 359.389 362.751C359.389 363.092 359.389 363.432 359.389 363.772C359.389 364.112 359.237 364.112 358.783 364.112C358.632 364.112 358.48 364.112 358.329 364.112C357.874 364.112 356.511 363.942 355.148 363.942C354.391 363.942 353.634 363.942 353.028 363.942C352.574 363.942 351.968 363.942 351.362 363.942C349.847 363.942 348.181 363.942 347.576 363.942C346.97 363.942 346.97 363.772 346.97 363.432C346.97 363.262 346.97 363.092 346.97 362.921C346.97 362.751 346.97 362.751 346.97 362.581C346.97 362.411 346.97 362.071 346.97 360.711C346.97 358.671 346.818 356.12 346.818 353.91C346.818 351.699 347.121 348.468 347.121 347.108C347.121 345.748 347.121 343.197 346.97 342.007C346.818 340.817 348.333 341.327 349.242 341.327C350.15 341.327 352.574 341.157 354.24 341.157C355.754 341.157 358.783 341.327 359.389 341.327C359.995 341.327 359.843 341.837 359.843 342.177C359.843 342.347 359.843 342.347 359.843 342.517C359.843 342.857 359.843 343.197 359.692 343.197C359.389 343.197 359.237 343.027 358.783 343.027H350.453C349.999 343.027 349.545 343.027 349.09 343.197H348.484V344.048C348.484 344.558 348.484 345.068 348.484 345.578C348.484 346.428 348.636 347.278 348.636 348.128V349.489C348.636 349.829 348.636 349.999 348.636 350.339C348.939 350.339 349.09 350.339 349.393 350.339H350.605C351.059 350.339 351.665 350.169 352.574 350.169C353.482 350.169 354.542 350.339 354.845 350.339C355.148 350.339 355.603 350.169 356.36 350.169C356.814 350.169 357.874 350.339 358.329 350.339C358.48 350.339 358.632 350.339 358.783 350.339H358.935C359.237 350.339 359.389 350.679 359.237 350.849C359.237 351.019 359.237 351.699 359.237 352.039C359.237 352.379 359.237 352.379 358.783 352.379C358.329 352.379 355.905 352.039 354.694 352.039C353.634 352.039 352.271 352.039 351.059 352.209C350.453 352.379 349.847 352.209 349.393 352.209C349.09 352.209 348.787 352.209 348.636 352.209L348.484 352.719C348.03 353.229 348.03 353.57 348.03 354.08Z" fill="#2D46B9"/>
<path d="M361.813 360.541C361.965 360.031 362.116 359.011 362.419 358.16C362.722 357.31 363.176 355.27 363.328 354.42C363.479 353.399 363.934 352.039 364.085 351.359C364.237 350.509 364.691 348.979 364.842 347.958C365.145 346.938 365.297 346.088 365.448 345.578C365.6 345.068 366.206 343.197 366.357 342.347C366.66 341.497 366.811 340.817 367.417 340.817C367.72 340.817 367.871 341.497 368.174 342.517C368.477 343.367 369.083 346.088 369.235 346.598C369.386 347.108 370.598 351.019 370.749 351.699C371.052 352.379 371.961 355.61 372.264 356.46C372.566 357.31 373.172 359.691 373.475 360.711C373.778 361.731 374.535 363.942 374.687 364.282C374.687 364.452 374.838 364.622 374.838 364.622C374.838 364.792 374.838 364.792 374.535 364.792H372.869C372.718 364.792 372.566 364.792 372.566 364.452C372.415 363.942 372.264 363.602 372.264 363.262C372.112 362.581 371.961 362.071 371.961 361.731C371.809 361.221 371.506 360.031 371.355 359.521C371.203 359.181 371.052 358.671 370.901 358.16L370.598 357.14C370.446 356.63 370.295 356.63 370.143 356.63C369.84 356.63 369.537 356.63 369.235 356.63C368.78 356.63 368.174 356.63 368.023 356.63C367.72 356.63 366.811 356.63 365.903 356.63H364.085C363.934 356.63 363.934 356.8 363.782 356.97V357.31L363.631 357.99C363.479 358.501 363.025 361.051 363.025 361.391C363.025 361.731 362.874 362.241 362.722 362.411C362.571 362.581 362.571 363.092 362.419 363.432C362.268 363.772 362.268 363.942 362.268 364.282C362.116 364.622 362.268 364.622 361.965 364.622H361.359C361.208 364.622 361.056 364.452 361.208 364.112V363.942C361.208 363.772 361.208 363.772 361.359 363.432L361.662 362.241C361.511 361.731 361.662 361.051 361.813 360.541ZM369.689 353.91C369.689 353.74 369.537 353.57 369.537 353.229C369.235 352.719 368.78 350.509 368.477 349.489C368.174 348.468 367.569 345.918 367.417 345.408C367.266 344.898 366.963 343.707 366.811 343.707C366.66 343.707 366.508 344.558 366.357 345.238C366.206 345.918 365.448 348.979 365.297 349.659C365.145 350.509 364.54 352.889 364.388 353.57C364.388 353.74 364.388 353.74 364.388 353.74C364.388 354.25 364.994 354.08 365.145 354.08C365.448 354.08 366.508 354.08 366.811 354.08C366.963 354.08 367.417 354.08 367.871 354.08C368.477 354.08 369.083 354.08 369.386 354.08C369.689 354.08 369.689 354.08 369.689 353.91Z" fill="#2D46B9"/>
<path d="M569.085 10.7408C569.236 10.9108 569.236 10.9108 569.236 11.0809C569.236 11.2509 569.085 11.4209 569.085 11.591C568.934 11.931 568.328 12.7812 568.025 13.2913C567.722 13.6314 567.722 13.8014 567.419 13.8014C567.116 13.8014 564.39 10.4007 562.27 10.4007C561.512 10.4007 560.452 10.4007 560.452 12.6112C560.452 14.8216 562.573 15.6718 563.936 16.3519C565.299 17.0321 569.691 18.5624 569.691 25.1938C569.691 29.6147 566.51 31.4851 561.664 31.4851C556.817 31.4851 555.303 28.0844 555.151 27.7443C555 27.5743 555 27.5743 555 27.4043C555 27.2342 555.151 27.2342 555.303 26.8942C555.606 26.5541 556.06 25.8739 556.363 25.5339C556.514 25.3638 556.515 25.3638 556.666 25.3638C556.817 25.3638 557.12 25.7039 557.272 26.044C557.575 26.3841 558.938 27.9144 561.21 27.9144C562.27 27.9144 563.936 27.5743 563.936 25.7039C563.936 23.6635 562.118 21.9631 560.755 20.7729C559.392 19.7527 555.454 18.2223 555.454 13.9715C555.454 9.72057 559.695 7 561.815 7C566.056 7.17004 568.782 10.5708 569.085 10.7408Z" fill="#2D46B9"/>
<path d="M573.779 21.2829C573.779 25.1938 575.142 27.9143 577.11 27.9143C579.079 27.9143 579.534 26.214 579.534 25.3638C579.534 24.5136 579.685 20.4328 579.685 17.8822C579.685 16.1819 579.837 13.2913 579.837 11.2508C579.837 10.2306 579.837 9.55049 579.685 9.04039C579.685 8.70032 579.534 8.53028 579.534 8.36024C579.534 7.51006 580.14 7.6801 580.291 7.6801C580.594 7.6801 581.654 7.6801 582.411 7.6801C583.017 7.6801 583.017 8.02017 583.017 8.53028C583.017 8.87035 583.017 9.55049 583.017 10.2306C583.017 10.5707 583.017 10.9108 583.017 11.2508C582.866 12.4411 583.32 16.3519 583.169 22.6432C583.017 28.7645 579.988 30.6349 577.11 30.6349C574.233 30.6349 572.87 27.9143 572.415 26.0439C572.113 25.0237 571.961 22.4732 571.961 20.4328C571.961 19.2425 571.961 18.3923 572.113 17.8822C572.113 17.3721 572.113 16.1819 572.113 14.8216C572.113 12.6111 572.113 9.72052 571.961 8.87034C571.961 8.70031 571.961 8.53028 571.961 8.36024C571.961 7.51006 572.264 7.51006 572.567 7.6801C572.718 7.6801 572.718 7.6801 572.87 7.6801C573.021 7.6801 573.173 7.6801 573.324 7.6801C573.476 7.6801 573.476 7.85013 573.476 8.02016C573.93 5.63967 573.779 16.5219 573.779 21.2829Z" fill="#2D46B9"/>
<path d="M599.525 10.9108C599.676 11.2509 599.828 11.4209 599.828 11.591C599.828 11.931 599.525 12.1011 599.222 12.2711C598.768 12.6112 597.253 13.9715 596.799 14.3115C596.647 14.3115 596.647 14.4816 596.496 14.4816C596.193 14.4816 596.042 14.1415 595.89 13.8014C595.587 13.4614 595.133 12.6112 594.073 12.6112C593.013 12.6112 592.255 13.8014 592.255 18.5624C592.255 23.3234 593.467 24.6837 594.224 24.6837C594.981 24.6837 595.284 24.3436 595.739 23.3234C595.89 22.6433 596.193 22.4732 596.496 22.4732C596.799 22.4732 596.95 22.6433 597.253 22.6433C597.708 22.8133 599.828 23.3234 600.585 23.4935C600.888 23.4935 601.039 23.8335 601.039 24.3436C601.039 24.5137 601.039 24.6837 601.039 24.8537C601.039 25.1938 600.888 25.5339 600.737 26.044C600.282 27.9144 598.768 31.4851 594.224 31.4851C591.195 31.4851 586.197 28.7645 586.197 18.7325C586.197 8.70036 590.892 7.34008 593.467 7.34008C597.859 7.17005 598.919 10.0606 599.525 10.9108Z" fill="#2D46B9"/>
<path d="M616.336 27.0641C616.336 27.2342 616.336 27.2342 616.185 27.4042C615.882 28.0844 614.216 31.145 610.278 31.145C606.492 31.145 602.706 25.8739 602.706 19.0725C602.706 12.2711 606.341 7.51007 609.521 7.51007C612.853 7.51007 614.367 9.89056 614.67 10.4007C614.822 10.7407 614.973 10.9108 614.973 11.0808C614.973 11.2508 614.822 11.4209 614.67 11.5909C614.065 12.101 613.156 12.9512 612.701 13.6313C612.399 14.1415 612.096 14.4815 611.793 14.4815C611.641 14.4815 611.49 14.3115 611.338 14.1415C610.733 13.4613 610.278 12.7812 609.521 12.7812C608.158 12.7812 606.341 14.4815 606.341 19.9227C606.341 25.3638 608.915 26.384 609.824 26.384C610.733 26.384 611.49 25.5338 611.944 25.0237C612.096 24.8537 612.247 24.6837 612.399 24.6837C612.55 24.6837 612.55 24.6836 612.701 24.8537L615.125 26.384C616.033 26.7241 616.336 26.7241 616.336 27.0641Z" fill="#2D46B9"/>
<path d="M620.123 20.4328C620.123 21.1129 620.274 21.453 620.274 22.3032V26.214C620.274 26.7241 620.274 27.4042 620.274 27.9143C620.274 28.2544 620.274 28.4244 620.274 28.7645C620.729 28.7645 621.032 28.7645 621.334 28.7645C621.94 28.7645 622.698 28.7645 623.303 28.7645C624.364 28.7645 625.424 28.7645 626.484 28.7645C627.544 28.7645 628.604 28.5945 629.361 28.5945C630.119 28.5945 630.876 28.5945 631.179 28.5945C631.482 28.5945 631.482 28.7645 631.482 29.1046C631.482 29.4446 631.482 29.7847 631.482 30.1248C631.482 30.4649 631.33 30.4649 630.876 30.4649C630.724 30.4649 630.573 30.4649 630.422 30.4649C629.967 30.4649 628.604 30.2948 627.241 30.2948C626.484 30.2948 625.727 30.2948 625.121 30.2948C624.666 30.2948 624.061 30.2948 623.455 30.2948C621.94 30.2948 620.274 30.2948 619.669 30.2948C619.063 30.2948 619.063 30.1248 619.063 29.7847C619.063 29.6147 619.063 29.4446 619.063 29.2746C619.063 29.1046 619.063 29.1046 619.063 28.9345C619.063 28.7645 619.063 28.4244 619.063 27.0641C619.063 25.0237 618.911 22.4732 618.911 20.2627C618.911 18.0523 619.214 14.8216 619.214 13.4613C619.214 12.101 619.214 9.5505 619.063 8.36025C618.911 7.17 620.426 7.6801 621.334 7.6801C622.243 7.6801 624.666 7.51007 626.332 7.51007C627.847 7.51007 630.876 7.6801 631.482 7.6801C632.087 7.6801 631.936 8.19021 631.936 8.53028C631.936 8.70032 631.936 8.70031 631.936 8.87035C631.936 9.21042 631.936 9.55049 631.785 9.55049C631.482 9.55049 631.33 9.38046 630.876 9.38046H622.546C622.092 9.38046 621.637 9.38046 621.183 9.55049H620.577V10.4007C620.577 10.9108 620.577 11.4209 620.577 11.931C620.577 12.7812 620.729 13.6313 620.729 14.4815V15.8418C620.729 16.1819 620.729 16.3519 620.729 16.692C621.032 16.692 621.183 16.692 621.486 16.692H622.698C623.152 16.692 623.758 16.5219 624.666 16.5219C625.575 16.5219 626.635 16.692 626.938 16.692C627.241 16.692 627.695 16.5219 628.453 16.5219C628.907 16.5219 629.967 16.692 630.422 16.692C630.573 16.692 630.724 16.692 630.876 16.692H631.027C631.33 16.692 631.482 17.0321 631.33 17.2021C631.33 17.3721 631.33 18.0523 631.33 18.3923C631.33 18.7324 631.33 18.7324 630.876 18.7324C630.422 18.7324 627.998 18.3923 626.787 18.3923C625.727 18.3923 624.363 18.3923 623.152 18.5624C622.546 18.7324 621.94 18.5624 621.486 18.5624C621.183 18.5624 620.88 18.5624 620.729 18.5624L620.577 19.0725C620.123 19.7526 620.123 20.0927 620.123 20.4328Z" fill="#2D46B9"/>
<path d="M640.568 9.38053C637.69 9.38053 636.479 11.0809 636.479 13.1213C636.479 15.1617 638.145 16.352 639.659 17.2022C641.174 18.0523 646.02 19.0726 646.02 24.6837C646.02 30.2949 641.325 31.1451 638.75 31.1451C636.176 31.1451 634.207 29.1046 633.904 28.9346C633.601 28.7646 633.601 28.4245 633.753 28.4245C633.904 28.2545 634.207 27.4043 634.358 27.4043C634.51 27.4043 634.51 27.4043 634.964 27.9144C635.419 28.4245 637.236 29.4447 638.296 29.4447C639.356 29.4447 642.688 29.2747 642.688 25.5339C642.688 23.6635 640.416 22.6433 638.145 21.113C635.873 19.7527 633.753 17.8823 633.753 14.3116C633.753 9.89064 637.539 7.68018 640.568 7.68018C643.445 7.68018 645.414 9.7206 645.717 10.0607C645.869 10.2307 646.02 10.4007 646.02 10.5708C646.02 10.7408 646.02 10.7408 645.869 10.9109C645.717 11.0809 645.414 11.9311 645.111 11.9311C644.96 11.9311 644.808 11.9311 644.657 11.761L644.506 11.591C644.051 11.0809 642.234 9.38053 640.568 9.38053Z" fill="#2D46B9"/>
<path d="M662.377 10.7408C662.529 10.9108 662.529 10.9108 662.529 11.0809C662.529 11.2509 662.377 11.4209 662.377 11.591C662.226 11.931 661.62 12.7812 661.317 13.2913C661.014 13.6314 661.014 13.8014 660.711 13.8014C660.408 13.8014 657.682 10.4007 655.562 10.4007C654.805 10.4007 653.745 10.4007 653.745 12.6112C653.745 14.8216 655.865 15.6718 657.228 16.3519C658.591 17.0321 662.983 18.5624 662.983 25.1938C662.983 29.6147 659.803 31.4851 654.956 31.4851C650.11 31.4851 648.595 28.0844 648.444 27.7443C648.292 27.5743 648.292 27.5743 648.292 27.4043C648.292 27.2342 648.444 27.2342 648.595 26.8942C648.898 26.5541 649.352 25.8739 649.655 25.5339C649.807 25.3638 649.807 25.3638 649.958 25.3638C650.11 25.3638 650.413 25.7039 650.564 26.044C650.867 26.3841 652.23 27.9144 654.502 27.9144C655.562 27.9144 657.228 27.5743 657.228 25.7039C657.228 23.6635 655.411 21.9631 654.047 20.7729C652.684 19.7527 648.747 18.2223 648.747 13.9715C648.747 9.72057 652.987 7 655.108 7C659.5 7.17004 662.226 10.5708 662.377 10.7408Z" fill="#2D46B9"/>
<path d="M1246.14 250.814C1246.6 250.814 1246.44 250.984 1246.44 251.324C1246.44 251.494 1246.44 252.005 1246.44 252.515C1246.44 253.025 1245.99 252.855 1245.54 252.855C1245.08 252.855 1242.05 252.515 1241.14 252.515C1240.08 252.515 1234.18 252.855 1233.72 252.855C1233.27 252.855 1233.12 252.515 1233.12 252.175C1233.12 251.835 1233.12 250.984 1233.12 249.624C1233.12 248.434 1233.27 239.592 1233.27 238.572C1233.27 237.552 1232.97 230.92 1232.97 229.9C1232.97 229.39 1233.12 229.39 1233.42 229.39C1233.72 229.39 1234.03 229.56 1234.48 229.56C1234.93 229.56 1235.69 229.73 1236.45 229.73C1236.9 229.73 1237.51 229.73 1237.96 229.56C1239.17 229.39 1238.72 230.24 1238.72 231.09C1238.72 231.6 1238.57 235.511 1238.57 236.871C1238.57 238.232 1238.72 243.673 1238.72 244.353C1238.72 244.863 1238.72 247.414 1238.72 247.924C1238.72 248.094 1238.72 248.264 1238.72 248.604C1238.72 248.944 1238.72 249.114 1238.72 249.454V250.644L1242.96 250.814H1246.14Z" fill="#2D46B9"/>
<path d="M1247.96 248.605C1248.11 248.095 1248.26 247.075 1248.56 246.224C1248.87 245.374 1249.32 243.334 1249.47 242.484C1249.62 241.463 1250.08 240.103 1250.23 239.423C1250.38 238.573 1250.84 237.042 1250.99 236.022C1251.29 235.002 1251.44 234.152 1251.59 233.642C1251.74 233.132 1252.35 231.261 1252.5 230.411C1252.8 229.561 1252.96 228.881 1253.56 228.881C1253.86 228.881 1254.02 229.561 1254.32 230.581C1254.62 231.431 1255.23 234.152 1255.38 234.662C1255.53 235.172 1256.74 239.083 1256.89 239.763C1257.2 240.443 1258.1 243.674 1258.41 244.524C1258.71 245.374 1259.32 247.755 1259.62 248.775C1259.92 249.795 1260.68 252.006 1260.83 252.346C1260.83 252.516 1260.98 252.686 1260.98 252.686C1260.98 252.856 1260.98 252.856 1260.68 252.856H1259.01C1258.86 252.856 1258.71 252.856 1258.71 252.516C1258.56 252.006 1258.41 251.665 1258.41 251.325C1258.26 250.645 1258.1 250.135 1258.1 249.795C1257.95 249.285 1257.65 248.095 1257.5 247.585C1257.35 247.245 1257.2 246.734 1257.04 246.224L1256.74 245.204C1256.59 244.694 1256.44 244.694 1256.29 244.694C1255.98 244.694 1255.68 244.694 1255.38 244.694C1254.92 244.694 1254.32 244.694 1254.17 244.694C1253.86 244.694 1252.96 244.694 1252.05 244.694H1250.23C1250.08 244.694 1250.08 244.864 1249.93 245.034V245.374L1249.78 246.054C1249.62 246.564 1249.17 249.115 1249.17 249.455C1249.17 249.795 1249.02 250.305 1248.87 250.475C1248.72 250.645 1248.72 251.155 1248.56 251.495C1248.41 251.836 1248.41 252.006 1248.41 252.346C1248.26 252.686 1248.41 252.686 1248.11 252.686H1247.5C1247.35 252.686 1247.2 252.516 1247.35 252.176V252.006C1247.35 251.836 1247.35 251.836 1247.5 251.495L1247.81 250.305C1247.5 249.795 1247.81 249.115 1247.96 248.605ZM1255.83 241.973C1255.83 241.803 1255.68 241.633 1255.68 241.293C1255.38 240.783 1254.92 238.573 1254.62 237.553C1254.32 236.532 1253.71 233.982 1253.56 233.472C1253.41 232.962 1253.11 231.771 1252.96 231.771C1252.8 231.771 1252.65 232.622 1252.5 233.472C1252.35 234.152 1251.59 237.212 1251.44 237.893C1251.29 238.743 1250.68 241.123 1250.53 241.803C1250.53 241.973 1250.53 241.973 1250.53 241.973C1250.53 242.484 1251.14 242.314 1251.29 242.314C1251.59 242.314 1252.65 242.314 1252.96 242.314C1253.11 242.314 1253.56 242.314 1254.02 242.314C1254.62 242.314 1255.23 242.314 1255.53 242.314C1255.68 242.144 1255.83 242.144 1255.83 241.973Z" fill="#2D46B9"/>
<path d="M1270.53 245.374C1272.34 245.374 1272.49 243.334 1272.49 242.314C1272.49 241.633 1272.65 238.573 1272.65 236.532C1272.65 236.022 1272.65 235.682 1272.65 235.342C1272.65 233.812 1272.49 230.751 1272.49 230.071C1272.49 229.221 1272.65 229.051 1273.25 229.051H1277.04C1277.19 229.051 1277.34 229.051 1277.49 229.051C1277.79 229.051 1278.1 229.221 1278.25 230.071C1278.25 230.581 1278.25 232.111 1278.25 233.982C1278.25 236.702 1278.25 239.933 1278.25 241.123C1278.25 243.164 1277.64 252.516 1270.68 252.516C1263.71 252.516 1263.26 246.735 1263.1 245.034C1263.1 244.694 1263.1 244.184 1263.1 243.674C1263.1 241.293 1263.26 237.383 1263.26 235.682C1263.26 233.472 1263.1 230.921 1263.1 230.241C1263.1 229.561 1262.95 229.051 1263.71 229.051C1264.16 229.051 1264.77 229.051 1265.22 229.051C1265.53 229.051 1265.83 229.051 1266.13 229.051C1266.44 229.051 1266.89 229.051 1267.19 229.051C1267.65 229.051 1268.1 229.051 1268.4 229.051C1268.86 229.051 1268.86 229.221 1268.86 229.731V242.994C1268.86 243.504 1268.71 245.374 1270.53 245.374Z" fill="#2D46B9"/>
<path d="M1289.76 229.391C1289.76 228.371 1290.67 228.541 1291.27 228.541C1291.88 228.541 1293.7 228.371 1294.45 228.201C1295.21 228.031 1295.21 228.711 1295.21 229.731C1295.21 230.241 1295.21 233.132 1295.21 236.362C1295.21 239.423 1295.21 242.654 1295.21 243.844C1295.21 246.565 1295.36 253.536 1295.36 252.006C1295.36 252.346 1295.21 252.516 1294.91 252.516C1294.76 252.516 1294.76 252.516 1294.6 252.516C1294.45 252.516 1294.3 252.516 1294.15 252.516C1293.54 252.516 1292.48 252.686 1291.88 252.686C1291.12 252.686 1290.82 252.346 1290.51 251.496C1290.06 250.645 1289.3 248.605 1288.39 246.905C1287.94 246.054 1287.18 244.354 1286.43 242.994L1285.06 240.273V241.463C1285.06 242.144 1285.06 242.994 1285.06 243.844C1285.06 245.374 1285.06 250.815 1285.21 251.666C1285.21 251.836 1285.21 252.006 1285.21 252.006C1285.21 252.516 1285.06 252.516 1284.61 252.516C1284.15 252.516 1282.94 252.686 1282.34 252.686C1281.73 252.856 1281.58 252.516 1281.73 251.496C1281.73 250.475 1281.58 245.884 1281.43 241.804C1281.43 239.083 1281.58 235.342 1281.58 232.962C1281.58 231.942 1281.58 231.261 1281.43 230.751C1281.43 230.411 1281.43 230.241 1281.43 230.071C1281.43 229.221 1281.73 229.051 1282.19 229.051C1282.64 229.051 1282.94 229.051 1283.85 228.881C1284.15 228.881 1284.31 228.881 1284.46 228.881C1284.76 228.881 1284.91 228.881 1285.82 228.881C1287.03 228.881 1287.64 230.751 1288.24 231.771C1288.55 232.282 1288.85 232.962 1289.15 233.302L1289.61 233.982V231.941C1289.76 230.921 1289.76 229.901 1289.76 229.391Z" fill="#2D46B9"/>
<path d="M1311.72 248.775C1311.72 248.945 1311.72 248.945 1311.57 249.115C1311.26 249.795 1309.6 252.856 1305.66 252.856C1301.87 252.856 1298.09 247.585 1298.09 240.783C1298.09 233.982 1301.72 229.221 1304.9 229.221C1308.24 229.221 1309.75 231.601 1310.05 232.111C1310.2 232.452 1310.36 232.622 1310.36 232.792C1310.36 232.962 1310.2 233.132 1310.05 233.302C1309.45 233.812 1308.54 234.662 1308.08 235.342C1307.78 235.852 1307.48 236.192 1307.17 236.192C1307.02 236.192 1306.87 236.022 1306.72 235.852C1306.11 235.172 1305.66 234.492 1304.9 234.492C1303.54 234.492 1301.72 236.192 1301.72 241.633C1301.72 247.075 1304.3 248.095 1305.21 248.095C1305.96 248.095 1306.87 247.245 1307.33 246.735C1307.48 246.564 1307.63 246.394 1307.78 246.394C1307.93 246.394 1307.93 246.394 1308.08 246.564L1310.51 248.095C1311.26 248.265 1311.72 248.435 1311.72 248.775Z" fill="#2D46B9"/>
<path d="M1321.41 238.233C1321.87 238.233 1322.32 238.233 1322.62 238.233C1322.77 238.233 1322.93 238.233 1323.23 238.233C1323.38 238.233 1323.68 238.233 1323.83 238.233H1324.44L1324.59 237.212L1324.74 235.682C1324.74 234.832 1324.9 230.581 1324.9 229.901C1324.9 229.221 1325.05 229.051 1325.35 229.051C1325.8 229.051 1326.26 228.881 1327.02 228.881C1327.32 228.881 1327.47 228.881 1327.92 228.881C1328.53 228.881 1329.14 228.881 1329.44 229.051C1330.04 229.221 1329.89 229.221 1329.89 229.901C1329.89 230.411 1329.74 233.812 1329.74 234.832C1329.74 235.852 1329.44 239.593 1329.44 240.783C1329.44 242.144 1329.44 245.884 1329.44 247.245C1329.44 248.605 1329.44 251.155 1329.59 251.836C1329.59 252.516 1329.29 252.346 1328.98 252.346C1328.83 252.346 1328.68 252.346 1328.38 252.346C1328.23 252.346 1327.92 252.346 1327.62 252.346C1326.86 252.516 1325.5 252.516 1325.05 252.516C1324.59 252.516 1324.59 252.176 1324.59 251.666C1324.59 251.155 1324.59 248.095 1324.44 246.905C1324.44 246.224 1324.44 245.374 1324.44 244.524C1324.44 244.014 1324.44 243.504 1324.44 242.994H1323.53C1323.08 242.994 1322.47 242.994 1322.32 242.994C1322.17 242.994 1322.02 242.994 1321.87 242.994C1321.71 242.994 1321.41 242.994 1321.26 242.994C1321.11 242.994 1320.81 242.994 1320.5 242.994L1320.35 245.034C1320.2 246.224 1320.2 247.415 1320.2 248.095C1320.2 248.605 1320.2 249.115 1320.2 249.795C1320.2 250.645 1320.2 251.495 1320.2 252.006C1320.35 252.686 1319.9 252.516 1319.44 252.516C1318.99 252.516 1318.23 252.346 1317.78 252.346C1317.32 252.346 1316.11 252.516 1315.35 252.516C1314.75 252.686 1314.75 252.006 1314.75 251.666C1314.75 251.155 1314.9 248.945 1314.9 247.925C1314.9 247.245 1314.9 244.694 1314.9 242.824C1314.9 242.144 1314.9 241.463 1314.9 241.123C1314.9 240.613 1314.75 239.933 1314.75 239.083C1314.75 237.893 1314.75 236.532 1314.75 235.852C1314.75 234.662 1315.05 230.411 1315.05 229.731C1315.05 229.391 1315.2 229.221 1315.35 229.221C1315.51 229.221 1315.66 229.221 1315.81 229.221C1316.11 229.221 1317.32 229.391 1318.08 229.391C1318.69 229.391 1319.75 229.391 1320.2 229.391C1320.5 229.391 1320.5 229.731 1320.5 229.901C1320.5 230.241 1320.5 232.111 1320.5 233.812C1320.5 234.662 1320.5 235.682 1320.5 236.702V238.233C1320.2 238.233 1320.81 238.233 1321.41 238.233Z" fill="#2D46B9"/>
<path d="M1012.18 14.4811C1012.18 19.4122 1008.69 20.4324 1007.33 20.4324C1006.72 20.4324 1005.66 20.6024 1004.6 20.6024C1004 20.6024 1003.39 20.7724 1002.79 20.7724C1002.79 22.3028 1002.79 23.663 1002.79 24.8533C1002.79 26.8937 1002.79 29.1042 1002.94 29.4442C1003.09 30.1244 1002.33 30.4645 1002.03 30.2944C1001.88 30.2944 1001.73 30.2944 1001.57 30.2944C1001.12 30.2944 1000.21 30.2944 999.757 30.4645C999 30.6345 999 29.9544 999 29.4442C999 28.7641 999 26.7237 999 25.3634C999 24.1732 999.303 14.4811 999.303 10.5703C999.303 9.89017 999.303 9.38006 999.303 9.21003C999.303 8.86996 999.303 8.52989 999.303 8.35985C999.303 7.67971 999.454 7.50967 999.606 7.50967C999.909 7.50967 1000.67 7.50967 1001.42 7.50967C1001.73 7.50967 1003.09 7.50967 1004.6 7.50967C1005.51 7.50967 1006.57 7.50967 1007.63 7.67971C1009.9 7.67971 1012.18 9.5501 1012.18 14.4811ZM1006.57 18.0519C1007.63 18.0519 1009.6 17.5418 1009.6 14.6512C1009.6 11.9306 1008.54 10.7403 1006.72 10.2302C1004.91 9.89017 1003.7 9.72013 1003.24 9.89017C1003.24 10.4003 1003.24 10.7403 1003.24 11.2504C1003.24 12.1006 1003.24 12.9508 1003.09 13.971C1002.94 14.8212 1002.94 15.8414 1003.09 16.5216V17.8818L1004.45 18.0519C1005.21 18.0519 1005.97 18.0519 1006.57 18.0519Z" fill="#2D46B9"/>
<path d="M1027.02 19.2426C1027.02 24.0035 1025.2 31.3151 1020.51 31.3151C1013.99 31.3151 1013.54 22.3032 1013.54 18.7325C1013.54 9.21046 1017.78 7 1020.35 7C1026.72 7 1027.02 14.4816 1027.02 19.2426ZM1021.87 19.5826C1021.87 17.8823 1021.41 16.352 1020.51 16.352C1019.45 16.352 1018.99 18.5624 1018.99 19.9227C1018.99 21.283 1019.14 22.9833 1020.2 22.9833C1021.41 22.9833 1021.87 21.283 1021.87 19.5826Z" fill="#2D46B9"/>
<path d="M1037.77 17.0321C1038.07 16.522 1039.44 14.1415 1039.74 13.4614C1040.04 12.9513 1040.35 12.4412 1040.8 12.4412C1041.26 12.4412 1041.1 12.9513 1041.26 13.6314C1041.41 14.4816 1041.71 15.6718 1041.86 17.0321C1042.01 17.7123 1042.16 18.3924 1042.47 18.9025C1042.62 19.2426 1042.62 19.4126 1042.77 19.7527C1042.77 19.5826 1042.92 19.4126 1042.92 19.2426L1043.22 18.2224C1043.38 17.7123 1043.83 16.1819 1044.13 14.6516C1044.44 13.1213 1045.5 9.55055 1045.8 8.70037C1045.95 7.68016 1046.56 7.8502 1047.16 7.8502H1049.58C1050.04 7.8502 1050.19 8.02023 1050.19 8.19027C1050.19 8.3603 1050.19 8.53034 1050.04 8.70037C1049.89 9.38052 1049.58 10.5708 1048.98 12.2711C1048.52 13.9715 1047.62 17.2021 1047.31 18.3924C1047.01 19.5826 1046.1 23.8335 1045.8 25.3639C1045.34 26.8942 1044.28 30.635 1043.83 30.635C1043.38 30.635 1043.07 29.7848 1042.77 28.9346C1042.47 28.2545 1041.71 26.044 1041.26 24.1736C1041.1 23.3234 1040.65 21.9631 1040.35 20.7729L1039.74 18.7325C1039.74 18.9025 1039.59 19.0725 1039.59 19.2426C1039.44 19.5826 1039.29 19.9227 1039.13 20.4328L1037.17 24.8537C1036.71 26.044 1035.8 28.0844 1035.65 28.9346C1035.35 29.7848 1034.89 30.635 1034.44 30.635C1034.14 30.635 1033.99 30.2949 1033.83 29.7848C1033.68 29.2747 1033.53 29.1046 1033.23 27.4043C1032.93 25.7039 1031.56 19.2426 1031.26 17.8823C1030.96 16.522 1029.9 11.2509 1029.59 9.72059C1029.44 9.21048 1029.44 8.87041 1029.44 8.70037C1029.44 8.19027 1029.74 8.02024 1030.05 8.02024C1030.65 8.02024 1031.71 7.8502 1032.77 7.8502C1033.68 7.8502 1033.68 8.36031 1033.83 8.87041C1033.99 9.55055 1033.99 10.4007 1034.29 11.761C1034.59 13.1213 1035.5 16.522 1035.65 17.3722C1035.95 18.2224 1035.95 19.9227 1036.26 19.9227H1036.41C1036.71 19.2426 1037.47 17.5422 1037.77 17.0321Z" fill="#2D46B9"/>
<path d="M1053.68 20.2628C1053.68 20.943 1053.83 21.283 1053.83 22.1332V26.044C1053.83 26.5541 1053.83 27.2343 1053.83 27.7444C1053.83 28.0844 1053.83 28.2545 1053.83 28.5946C1054.28 28.5946 1054.59 28.5946 1054.89 28.5946C1055.49 28.5946 1056.25 28.5946 1056.86 28.5946C1057.92 28.5946 1058.98 28.5946 1060.04 28.5946C1061.1 28.5946 1062.16 28.4245 1062.92 28.4245C1063.67 28.4245 1064.43 28.4245 1064.73 28.4245C1065.04 28.4245 1065.04 28.5946 1065.04 28.9346C1065.04 29.2747 1065.04 29.6148 1065.04 29.9548C1065.04 30.2949 1064.88 30.2949 1064.43 30.2949C1064.28 30.2949 1064.13 30.2949 1063.98 30.2949C1063.52 30.2949 1062.16 30.1249 1060.79 30.1249C1060.04 30.1249 1059.28 30.1249 1058.67 30.1249C1058.22 30.1249 1057.61 30.1249 1057.01 30.1249C1055.49 30.1249 1053.83 30.1249 1053.22 30.1249C1052.62 30.1249 1052.62 29.9548 1052.62 29.6148C1052.62 29.4447 1052.62 29.2747 1052.62 29.1047C1052.62 28.9346 1052.62 28.9346 1052.62 28.7646C1052.62 28.5946 1052.62 28.2545 1052.62 26.8942C1052.62 24.8538 1052.46 22.3032 1052.46 20.0928C1052.46 17.8823 1052.77 14.6516 1052.77 13.2914C1052.77 11.9311 1052.77 9.38054 1052.62 8.1903C1052.46 7.00005 1053.98 7.51016 1054.89 7.51016C1055.8 7.51016 1058.22 7.34012 1059.89 7.34012C1061.4 7.34012 1064.43 7.51016 1065.04 7.51016C1065.64 7.51016 1065.49 8.02026 1065.49 8.36034C1065.49 8.53037 1065.49 8.53037 1065.49 8.7004C1065.49 9.04047 1065.49 9.38055 1065.34 9.38055C1065.04 9.38055 1064.88 9.21051 1064.43 9.21051H1056.1C1055.65 9.21051 1055.19 9.21051 1054.74 9.38055H1054.13V10.2307C1054.13 10.7408 1054.13 11.2509 1054.13 11.761C1054.13 12.6112 1054.28 13.4614 1054.28 14.3116V16.182C1054.28 16.522 1054.28 16.6921 1054.28 17.0321C1054.59 17.0321 1054.74 17.0321 1055.04 17.0321H1056.25C1056.71 17.0321 1057.31 16.8621 1058.22 16.8621C1059.13 16.8621 1060.19 17.0321 1060.49 17.0321C1060.79 17.0321 1061.25 16.8621 1062.01 16.8621C1062.46 16.8621 1063.52 17.0321 1063.98 17.0321C1064.13 17.0321 1064.28 17.0321 1064.43 17.0321H1064.58C1064.88 17.0321 1065.04 17.3722 1064.88 17.5422C1064.88 17.7123 1064.88 18.3924 1064.88 18.7325C1064.88 19.0726 1064.88 19.0726 1064.43 19.0726C1063.98 19.0726 1061.55 18.7325 1060.34 18.7325C1059.28 18.7325 1057.92 18.7325 1056.71 18.9025C1056.1 19.0726 1055.49 18.9025 1055.04 18.9025C1054.74 18.9025 1054.43 18.9025 1054.28 18.9025L1054.13 19.4126C1053.68 19.4126 1053.68 19.9227 1053.68 20.2628Z" fill="#2D46B9"/>
<path d="M1080.94 29.6148C1081.24 30.1249 1081.39 30.4649 1081.39 30.635C1081.39 30.805 1081.09 30.805 1080.79 30.805C1080.33 30.805 1077.91 30.975 1077.45 30.975C1077 30.975 1076.85 30.1249 1076.24 28.5945C1075.79 27.7444 1075.03 25.874 1074.27 24.1736L1072.76 20.9429C1072.91 22.4733 1072.91 23.8335 1073.06 25.1938C1073.21 27.4043 1073.21 29.7848 1073.36 30.1249C1073.36 30.2949 1073.36 30.2949 1073.36 30.4649C1073.36 30.975 1073.06 31.1451 1072.46 30.975C1071.7 30.805 1069.43 31.3151 1068.67 31.3151C1068.06 31.3151 1068.06 30.975 1068.06 30.635C1068.06 30.4649 1068.06 30.1249 1068.06 29.9548C1068.06 29.2747 1067.76 24.6837 1067.76 22.1332C1067.76 21.283 1067.76 20.6029 1067.91 20.2628C1068.06 19.5827 1068.06 17.7123 1068.06 15.6718C1068.06 13.2913 1068.06 10.7408 1067.91 9.7206C1067.91 9.38053 1067.91 9.21049 1067.91 9.04046C1067.91 7.85021 1068.22 8.02025 1068.52 8.02025C1068.82 8.02025 1070.64 7.68018 1072.46 7.68018C1077 7.68018 1079.12 10.7408 1079.12 14.4816C1079.12 16.522 1078.36 18.0523 1077.76 19.0726C1077.3 19.7527 1076.85 20.2628 1076.39 20.7729L1078.51 25.0238C1079.27 26.7241 1080.48 29.1046 1080.94 29.6148ZM1073.21 16.1819C1073.67 16.0119 1073.97 15.5018 1073.97 14.4816C1073.97 13.1213 1073.52 12.6112 1073.06 12.6112C1072.91 12.6112 1072.61 12.7812 1072.46 12.9513C1072.3 13.1213 1072.61 13.9715 1072.46 14.8217C1072.3 15.3318 1072.3 15.6718 1072.3 16.0119C1072.3 16.182 1072.3 16.1819 1072.3 16.352C1072.3 16.522 1072.3 16.522 1072.3 16.6921C1072.76 16.522 1073.06 16.352 1073.21 16.1819Z" fill="#2D46B9"/>
<path d="M129.484 474.037C129.635 473.867 129.635 473.867 129.786 473.867C129.938 473.867 130.089 474.037 130.241 474.037C130.544 474.207 131.301 474.887 131.755 475.227C132.058 475.567 132.21 475.567 132.21 475.907C132.21 476.247 129.181 479.308 129.181 481.688C129.181 482.538 129.181 483.729 131.149 483.729C133.118 483.729 133.876 481.348 134.481 479.818C135.087 478.288 136.45 473.357 142.357 473.357C146.295 473.357 147.961 476.927 147.961 482.368C147.961 487.81 144.932 489.51 144.629 489.68C144.477 489.85 144.477 489.85 144.326 489.85C144.174 489.85 144.174 489.68 143.871 489.51C143.568 489.17 142.963 488.66 142.66 488.32C142.508 488.15 142.508 488.15 142.508 487.98C142.508 487.81 142.811 487.47 143.114 487.299C143.417 486.959 144.78 485.429 144.78 482.879C144.78 481.688 144.477 479.818 142.811 479.818C140.994 479.818 139.479 481.858 138.419 483.389C137.51 484.919 136.147 489.34 132.361 489.34C128.575 489.34 126.152 484.579 126.152 482.198C126.303 477.267 129.332 474.207 129.484 474.037Z" fill="#2D46B9"/>
<path d="M138.419 457.883C140.842 457.883 145.234 457.373 146.294 457.373C147.506 457.203 147.203 458.393 147.203 460.264C147.203 462.304 147.052 467.065 147.052 467.745C147.052 468.086 146.749 468.086 146.446 468.086C145.992 468.086 145.234 467.915 144.477 467.915C144.023 467.915 143.114 467.915 141.751 467.915C138.722 467.915 134.027 467.745 131.907 467.575C131.149 467.575 130.392 467.575 129.786 467.575C128.878 467.575 128.12 467.575 127.666 467.745C127.666 468.086 127.666 468.256 127.666 468.256C127.666 468.766 127.666 470.636 127.666 470.976C127.666 471.146 127.514 471.316 127.212 471.316C127.06 471.316 126.757 471.316 126.606 471.316C126.303 471.316 126.151 471.146 126.151 470.976C126.151 470.806 126.151 470.466 126.151 470.126V463.154C126.151 461.284 126 455.503 126 454.653C126 453.973 126.454 454.143 126.909 454.143C127.514 454.143 127.514 454.483 127.514 454.993C127.514 455.503 127.514 456.183 127.514 457.713V457.883C129.938 457.713 136.45 457.883 138.419 457.883Z" fill="#2D46B9"/>
<path d="M146.595 436.289C147.05 435.949 147.353 435.779 147.504 435.779C147.655 435.779 147.655 436.119 147.655 436.459C147.655 436.969 147.807 439.69 147.807 440.2C147.807 440.71 147.05 440.88 145.687 441.56C144.929 442.07 143.263 442.92 141.749 443.77L138.871 445.471C140.234 445.301 141.446 445.301 142.658 445.131C144.626 444.961 146.747 444.961 147.05 444.791C147.201 444.791 147.201 444.791 147.353 444.791C147.807 444.791 147.958 445.131 147.807 445.811C147.655 446.661 148.11 449.212 148.11 450.062C148.11 450.742 147.807 450.742 147.504 450.742C147.353 450.742 147.05 450.742 146.898 450.742C146.292 450.742 142.203 451.082 139.931 451.082C139.174 451.082 138.568 451.082 138.266 450.912C137.66 450.742 135.994 450.742 134.176 450.742C132.056 450.742 129.784 450.742 128.876 450.912C128.573 450.912 128.421 450.912 128.27 450.912C127.21 450.912 127.361 450.572 127.361 450.232C127.361 449.892 127.058 447.851 127.058 445.811C127.058 440.71 129.784 438.329 133.116 438.329C134.934 438.329 136.297 439.18 137.205 439.86C137.811 440.37 138.266 440.88 138.72 441.39L142.506 439.009C143.869 437.989 145.99 436.799 146.595 436.289ZM134.631 444.791C134.479 444.281 134.025 443.941 133.116 443.941C131.905 443.941 131.45 444.451 131.45 444.961C131.45 445.131 131.602 445.471 131.753 445.641C131.905 445.811 132.662 445.471 133.419 445.641C133.873 445.811 134.176 445.811 134.479 445.811C134.631 445.811 134.631 445.811 134.782 445.811C134.934 445.811 134.934 445.811 135.085 445.811C134.782 445.471 134.782 445.131 134.631 444.791Z" fill="#2D46B9"/>
<path d="M143.869 433.398C143.415 433.228 142.506 433.058 141.749 432.718C140.991 432.378 139.174 431.868 138.417 431.698C137.508 431.528 136.296 431.018 135.691 430.848C134.933 430.678 133.57 430.168 132.662 429.997C131.753 429.657 130.996 429.487 130.541 429.317C130.087 429.147 128.421 428.467 127.664 428.297C126.906 427.957 126.301 427.787 126.301 427.107C126.301 426.767 126.906 426.597 127.815 426.257C128.572 425.917 130.996 425.237 131.45 425.066C131.904 424.896 135.388 423.536 135.993 423.366C136.599 423.026 139.477 422.006 140.234 421.666C140.991 421.326 143.112 420.646 144.02 420.305C144.929 419.965 146.898 419.115 147.201 418.945C147.352 418.945 147.504 418.775 147.504 418.775C147.655 418.775 147.655 418.775 147.655 419.115V420.986C147.655 421.156 147.655 421.326 147.352 421.326C146.898 421.496 146.595 421.666 146.292 421.666C145.686 421.836 145.232 422.006 144.929 422.006C144.475 422.176 143.415 422.516 142.96 422.686C142.657 422.856 142.203 423.026 141.749 423.196L140.84 423.536C140.386 423.706 140.386 423.876 140.386 424.046C140.386 424.386 140.386 424.726 140.386 425.066C140.386 425.577 140.386 426.257 140.386 426.427C140.386 426.767 140.386 427.787 140.386 428.807V430.848C140.386 431.018 140.537 431.018 140.688 431.188H140.991L141.597 431.358C142.052 431.528 144.323 432.038 144.626 432.038C144.929 432.038 145.383 432.208 145.535 432.378C145.686 432.548 146.141 432.548 146.444 432.718C146.747 432.888 146.898 432.888 147.201 432.888C147.504 433.058 147.504 432.888 147.504 433.228V433.908C147.504 434.078 147.352 434.248 147.049 434.078H146.898C146.746 434.078 146.747 434.078 146.444 433.908L145.383 433.568C145.081 433.738 144.475 433.568 143.869 433.398ZM138.114 424.556C137.962 424.556 137.811 424.726 137.508 424.726C137.054 425.066 135.085 425.577 134.176 425.917C133.267 426.257 130.996 426.937 130.541 427.107C130.087 427.277 129.027 427.617 129.027 427.787C129.027 427.957 129.784 428.127 130.541 428.297C131.147 428.467 133.873 429.317 134.479 429.487C135.236 429.657 137.357 430.338 137.962 430.508C138.114 430.508 138.114 430.508 138.114 430.508C138.568 430.508 138.417 429.827 138.417 429.657C138.417 429.317 138.417 428.127 138.417 427.787C138.417 427.617 138.417 427.107 138.417 426.597C138.417 425.917 138.417 425.236 138.417 424.896C138.265 424.556 138.265 424.556 138.114 424.556Z" fill="#2D46B9"/>
<path d="M138.419 403.982C140.842 403.982 145.234 403.472 146.294 403.472C147.506 403.302 147.203 404.492 147.203 406.363C147.203 408.403 147.052 413.164 147.052 413.844C147.052 414.184 146.749 414.184 146.446 414.184C145.992 414.184 145.234 414.014 144.477 414.014C144.023 414.014 143.114 414.014 141.751 414.014C138.722 414.014 134.027 413.844 131.907 413.674C131.149 413.674 130.392 413.674 129.786 413.674C128.878 413.674 128.12 413.674 127.666 413.844C127.666 414.184 127.666 414.354 127.666 414.354C127.666 414.864 127.666 416.735 127.666 417.075C127.666 417.245 127.514 417.415 127.212 417.415C127.06 417.415 126.757 417.415 126.606 417.415C126.303 417.415 126.151 417.245 126.151 417.075C126.151 416.905 126.151 416.565 126.151 416.225V409.253C126.151 407.383 126 401.602 126 400.752C126 400.071 126.454 400.241 126.909 400.241C127.514 400.241 127.514 400.582 127.514 401.092C127.514 401.602 127.514 402.282 127.514 403.812V403.982C129.938 403.982 136.45 403.982 138.419 403.982Z" fill="#2D46B9"/>
<path d="M138.116 396.16C138.722 396.16 139.025 395.99 139.782 395.99H143.266C143.72 395.99 144.326 395.99 144.78 395.99C145.083 395.99 145.235 395.99 145.537 395.99C145.537 395.48 145.537 395.14 145.537 394.8C145.537 394.12 145.537 393.27 145.537 392.59C145.537 391.399 145.537 390.209 145.537 389.019C145.537 387.829 145.386 386.638 145.386 385.788C145.386 384.938 145.386 384.088 145.386 383.748C145.386 383.408 145.537 383.408 145.84 383.408C146.143 383.408 146.446 383.408 146.749 383.408C147.052 383.408 147.052 383.578 147.052 384.088C147.052 384.258 147.052 384.428 147.052 384.598C147.052 385.108 146.901 386.638 146.901 388.169C146.901 389.019 146.901 389.869 146.901 390.549C146.901 391.059 146.901 391.74 146.901 392.42C146.901 394.12 146.901 395.99 146.901 396.671C146.901 397.351 146.749 397.351 146.446 397.351C146.295 397.351 146.143 397.351 145.992 397.351C145.84 397.351 145.84 397.351 145.689 397.351C145.537 397.351 145.235 397.351 144.023 397.351C142.206 397.351 139.934 397.521 137.965 397.521C135.996 397.521 133.118 397.181 131.907 397.181C130.695 397.181 128.423 397.181 127.363 397.351C126.303 397.521 126.758 395.82 126.758 394.8C126.758 393.78 126.606 391.059 126.606 389.189C126.606 387.489 126.758 384.088 126.758 383.408C126.758 382.728 127.212 382.898 127.515 382.898C127.666 382.898 127.666 382.898 127.818 382.898C128.121 382.898 128.423 382.898 128.423 383.068C128.423 383.408 128.272 383.578 128.272 384.088V393.44C128.272 393.95 128.272 394.46 128.423 394.97V395.65H129.181C129.635 395.65 130.089 395.65 130.544 395.65C131.301 395.65 132.058 395.48 132.816 395.48H134.027C134.33 395.48 134.482 395.48 134.784 395.48C134.784 395.14 134.784 394.97 134.784 394.63V393.27C134.784 392.76 134.633 392.08 134.633 391.059C134.633 390.039 134.784 388.849 134.784 388.509C134.784 388.169 134.633 387.659 134.633 386.809C134.633 386.298 134.784 385.278 134.784 384.598C134.784 384.428 134.784 384.258 134.784 384.088V383.918C134.784 383.578 135.087 383.408 135.239 383.578C135.39 383.578 135.996 383.578 136.299 383.578C136.602 383.578 136.602 383.578 136.602 384.088C136.602 384.598 136.299 387.319 136.299 388.679C136.299 389.869 136.299 391.399 136.45 392.76C136.602 393.44 136.45 394.12 136.45 394.63C136.45 394.97 136.45 395.31 136.45 395.48L136.905 395.65C137.511 396.16 137.813 396.16 138.116 396.16Z" fill="#2D46B9"/>
<path d="M138.57 372.356C138.57 372.866 138.268 373.036 138.116 373.036C137.813 373.036 137.51 372.866 136.904 372.696C136.147 372.526 136.299 372.186 136.299 371.845C136.299 371.505 136.45 370.485 136.602 369.125C136.753 367.765 137.056 365.894 137.056 364.874C137.056 364.364 137.359 364.194 137.51 364.194C137.662 364.194 137.813 364.194 137.965 364.194C145.84 364.704 147.506 369.295 147.506 372.186C147.506 374.226 145.992 381.197 137.207 381.197C127.06 381.197 126 374.736 126 372.356C126 367.425 129.635 365.554 129.938 365.384C130.241 365.214 130.846 365.044 131.149 364.874H131.301C131.452 364.874 131.452 365.044 131.755 365.384C132.058 365.894 132.512 367.084 132.815 367.765C133.118 368.445 133.573 368.955 133.875 369.635C134.027 369.975 134.178 370.145 134.33 370.315C134.33 370.485 134.481 370.485 134.481 370.655C134.481 370.825 134.481 370.825 134.481 370.995C134.481 371.335 134.178 371.335 134.027 371.505C133.724 371.675 132.967 372.015 132.967 372.866C132.967 374.396 135.541 374.906 137.207 374.906C138.873 374.906 141.599 375.076 141.599 372.866C141.599 371.845 140.842 371.335 140.085 370.995C139.631 370.825 139.176 370.825 138.57 370.825L138.419 371.505C138.722 371.505 138.57 372.015 138.57 372.356Z" fill="#2D46B9"/>
<path d="M134.027 356.202C134.633 355.862 135.542 355.522 136.299 355.352C136.754 355.182 137.208 355.012 137.662 354.842L136.905 354.502L135.693 353.992C134.936 353.652 132.059 352.461 131.301 352.121C130.696 351.781 128.878 351.271 127.969 350.931C126.909 350.591 127.061 350.081 127.061 349.741C127.061 349.571 127.061 348.721 127.061 348.04C127.061 347.53 127.061 346.85 127.061 346.68C127.061 346.17 127.212 346 127.364 346C127.515 346 127.515 346 127.667 346C127.969 346.17 129.938 346.85 131.15 347.36C132.21 347.87 136.451 349.741 137.662 350.251C139.025 350.931 144.175 353.142 144.629 353.312C145.083 353.482 146.295 353.652 146.749 353.822C147.204 353.992 147.355 353.992 147.355 354.332V356.202C147.355 356.712 147.355 358.243 147.355 358.753C147.355 359.093 147.355 359.263 147.204 359.263C147.052 359.263 147.052 359.093 146.901 359.093L144.023 357.902C143.569 357.732 142.357 357.222 141.903 357.052C141.449 356.882 141.146 356.542 140.843 356.712C140.54 356.882 139.025 357.392 138.268 357.732C137.511 358.073 136.602 358.243 135.693 358.753C134.785 359.093 129.938 360.963 129.181 361.303C128.424 361.643 127.969 361.983 127.667 361.983C127.364 361.983 127.364 361.473 127.212 360.963C127.212 360.453 127.212 359.943 127.212 359.263C127.364 358.753 127.515 358.923 127.818 358.753L130.241 357.902C131.15 357.562 132.967 356.712 134.027 356.202Z" fill="#2D46B9"/>
<path d="M1013.65 363.363L1018.8 360.812L1015.32 354.861L1010.47 355.881L1004.41 351.63V344.149H997.446C997.446 344.149 997.446 351.12 997.446 351.63L991.993 354.861L988.813 351.12L984.572 358.092L987.904 361.322V371.864L983.664 374.585L985.632 379.176L989.873 376.455L995.931 382.067L995.022 386.998H1002.44L1002.75 382.407L1009.41 379.176L1012.74 382.407L1017.59 375.605L1014.26 373.395L1013.65 363.363ZM1000.63 377.646C995.477 377.646 991.236 372.885 991.236 367.103C991.236 361.322 995.477 356.561 1000.63 356.561C1005.78 356.561 1010.02 361.322 1010.02 367.103C1010.02 372.885 1005.78 377.646 1000.63 377.646Z" fill="#2D46B9"/>
<path d="M1023.49 356.561L1022.28 362.682L1028.64 363.023L1030.76 358.092L1037.43 355.201L1042.73 359.792L1046.97 353.501C1046.97 353.501 1041.97 349.25 1041.67 348.91L1042.58 342.108L1047.12 341.428L1044.7 333.436L1040.46 334.457L1032.88 328.165L1033.49 322.724L1029.1 321.704L1028.49 327.145L1020.92 329.185L1017.89 325.275L1013.35 331.906L1016.53 334.967L1014.86 342.958L1010.62 343.979L1012.59 352.31L1016.07 350.61L1023.49 356.561ZM1021.22 336.327C1024.4 331.736 1030.16 330.716 1034.25 334.287C1038.34 337.857 1039.24 344.319 1036.06 348.91C1032.88 353.501 1027.13 354.521 1023.04 350.95C1018.95 347.549 1018.04 340.918 1021.22 336.327Z" fill="#2D46B9"/>
<path d="M989.873 337.857L988.662 343.979L995.023 344.319L997.143 339.388L1003.81 336.497L1009.11 341.088L1013.35 334.797C1013.35 334.797 1008.35 330.546 1008.05 330.206L1008.96 323.404L1013.5 322.724L1011.08 314.732L1006.84 315.753L999.263 309.461L999.869 304.02L995.477 303L994.871 308.441L987.299 310.482L984.27 306.571L979.726 313.202L982.907 316.263L981.241 324.254L977 325.275L978.969 333.606L982.452 331.906L989.873 337.857ZM987.602 317.453C990.782 312.862 996.537 311.842 1000.63 315.413C1004.72 318.983 1005.62 325.445 1002.44 330.036C999.263 334.627 993.508 335.647 989.419 332.076C985.33 328.675 984.573 322.214 987.602 317.453Z" fill="#2D46B9"/>
<path d="M427.544 34.1903H423.758L416.034 48.1332L405.735 47.6231L405.281 47.113L404.372 47.6231L401.041 47.453L402.555 66.327L423.91 65.1367V48.6433L420.578 48.4733L427.544 34.1903ZM414.671 50.3437L412.096 54.9346L407.553 49.6635L414.671 50.3437ZM421.335 51.0238V61.566L404.524 63.7765L402.404 49.3234L413.762 61.736L419.215 50.8538L421.335 51.0238Z" fill="#2D46B9"/>
<path d="M169.504 20H165.718L157.994 33.9429L147.695 33.4328L147.241 32.9227L146.332 33.4328L143 33.2628L144.515 52.1367L165.869 50.9464V34.453L162.537 34.283L169.504 20ZM156.631 36.1534L154.056 40.7443L149.512 35.4732L156.631 36.1534ZM163.294 36.8335V47.3757L146.483 49.7562L144.363 35.3032L155.722 47.7158L161.174 36.8335H163.294Z" fill="#2D46B9"/>
<path d="M1171.91 467.234C1172.06 466.724 1172.21 465.704 1172.51 464.853C1172.82 464.003 1173.27 461.963 1173.42 461.113C1173.57 459.922 1174.03 458.562 1174.18 457.882C1174.33 457.032 1174.79 455.501 1174.94 454.481C1175.24 453.461 1175.39 452.611 1175.54 452.101C1175.7 451.591 1176.3 449.72 1176.45 448.87C1176.76 448.02 1176.91 447.34 1177.51 447.34C1177.82 447.34 1177.97 448.02 1178.27 449.04C1178.57 449.89 1179.18 452.611 1179.33 453.121C1179.48 453.631 1180.69 457.542 1180.84 458.222C1181.15 458.902 1182.06 462.133 1182.36 462.983C1182.66 463.833 1183.27 466.214 1183.57 467.234C1183.87 468.254 1184.63 470.465 1184.78 470.805C1184.78 470.975 1184.93 471.145 1184.93 471.145C1184.93 471.315 1184.93 471.315 1184.63 471.315H1182.96C1182.81 471.315 1182.66 471.315 1182.66 470.975C1182.51 470.465 1182.36 470.124 1182.36 469.784C1182.21 469.104 1182.06 468.594 1182.06 468.254C1181.9 467.744 1181.6 466.554 1181.45 466.044C1181.3 465.704 1181.15 465.193 1181 464.683L1180.69 463.663C1180.39 462.983 1180.39 462.983 1180.24 462.983C1179.94 462.983 1179.63 462.983 1179.33 462.983C1178.88 462.983 1178.27 462.983 1178.12 462.983C1177.82 462.983 1176.91 462.983 1176 462.983H1174.03C1173.88 462.983 1173.88 463.153 1173.73 463.323V463.663L1173.57 464.343C1173.42 464.853 1172.97 467.404 1172.97 467.744C1172.97 468.084 1172.82 468.594 1172.67 468.764C1172.51 468.934 1172.51 469.444 1172.36 469.784C1172.21 470.124 1172.21 470.295 1172.21 470.635C1172.06 470.975 1172.21 470.975 1171.91 470.975H1171.15C1171 471.145 1171 470.975 1171 470.635V470.465C1171 470.295 1171 470.295 1171.15 469.954L1171.45 468.764C1171.61 468.424 1171.76 467.914 1171.91 467.234ZM1179.78 460.603C1179.78 460.432 1179.63 460.262 1179.63 459.922C1179.33 459.412 1178.88 457.202 1178.57 456.182C1178.27 455.161 1177.66 452.611 1177.51 452.101C1177.36 451.591 1177.06 450.4 1176.91 450.4C1176.76 450.4 1176.6 451.251 1176.45 452.101C1176.3 452.781 1175.54 455.842 1175.39 456.522C1175.24 457.372 1174.63 459.752 1174.48 460.432C1174.48 460.602 1174.48 460.603 1174.48 460.603C1174.48 461.113 1175.09 460.943 1175.24 460.943C1175.54 460.943 1176.6 460.943 1176.91 460.943C1177.06 460.943 1177.51 460.943 1177.97 460.943C1178.57 460.943 1179.18 460.943 1179.48 460.943C1179.63 460.773 1179.78 460.773 1179.78 460.603Z" fill="#2D46B9"/>
<path d="M1193.11 459.583C1193.11 461.793 1193.26 466.554 1193.26 467.574C1193.26 468.595 1193.41 470.295 1193.41 470.805C1193.41 471.315 1193.11 471.315 1192.81 471.315C1192.5 471.315 1191.6 471.485 1190.84 471.485C1190.08 471.485 1188.72 471.485 1187.96 471.485C1187.2 471.485 1187.2 470.975 1187.2 470.635C1187.2 470.295 1187.05 469.955 1187.05 469.105C1187.05 468.765 1187.05 468.254 1187.05 467.744C1187.05 465.874 1187.05 461.963 1187.2 460.433C1187.35 458.903 1187.66 453.291 1187.66 451.931C1187.66 450.571 1187.66 449.381 1187.81 448.02C1187.81 447.34 1188.26 447.17 1188.57 447.17C1188.87 447.17 1189.17 447.17 1189.32 447.17C1189.78 447.17 1190.99 447.17 1191.75 447.17C1192.66 447.17 1192.96 447.34 1193.26 447.85C1193.56 448.36 1194.32 450.571 1195.08 452.271C1195.84 453.971 1197.65 458.562 1198.41 460.263C1198.71 461.113 1199.32 462.303 1199.92 463.493L1200.83 465.534V463.664L1200.68 460.433C1200.68 460.093 1200.68 459.753 1200.68 459.413C1200.68 458.052 1200.68 456.692 1200.68 455.672C1200.68 454.652 1200.68 452.101 1200.68 450.911L1200.83 447.68C1200.83 447.34 1200.99 447.17 1201.29 447.17C1201.44 447.17 1201.74 447.17 1201.89 447.34C1202.2 447.51 1202.35 447.34 1202.95 447.34C1203.26 447.34 1203.41 447.51 1203.41 447.68C1203.41 447.85 1203.41 448.02 1203.41 448.36C1203.41 449.04 1203.26 456.182 1203.26 457.882C1203.26 458.222 1203.26 458.392 1203.26 458.902C1203.26 460.773 1203.41 463.664 1203.41 464.854C1203.41 466.384 1203.56 469.955 1203.56 470.635C1203.56 471.145 1203.26 471.315 1202.95 471.145C1202.8 471.145 1202.8 471.145 1202.65 471.145C1202.35 471.145 1201.89 471.145 1201.59 471.145C1201.29 471.145 1201.29 471.145 1200.99 470.465C1200.68 469.955 1199.17 465.364 1198.56 464.004C1197.96 462.643 1195.99 457.542 1195.23 456.012C1194.93 455.332 1194.32 454.142 1193.87 453.121L1192.96 451.421L1193.11 454.482C1192.96 456.352 1193.11 458.392 1193.11 459.583Z" fill="#2D46B9"/>
<path d="M1211.89 447.51C1212.04 447.17 1212.19 447.17 1212.34 447.34C1212.5 447.51 1212.65 447.85 1212.8 448.19C1212.95 448.7 1214.01 451.081 1214.31 452.101C1214.77 453.121 1215.22 454.311 1215.53 455.672C1215.98 457.032 1217.34 460.433 1217.95 461.963C1218.55 463.493 1220.07 466.724 1220.52 467.574C1220.98 468.424 1221.43 469.955 1221.89 470.465C1222.04 470.635 1222.04 470.805 1222.04 470.975C1222.04 471.145 1221.73 471.315 1221.58 471.315H1219.46C1219.16 471.315 1219.01 470.805 1218.86 470.295C1218.55 469.785 1217.8 467.404 1217.65 466.894C1217.49 466.384 1217.19 465.534 1216.89 465.024C1216.74 464.514 1216.59 464.344 1216.43 464.344C1216.28 464.344 1215.83 464.344 1215.22 464.514C1214.77 464.684 1212.95 464.514 1212.04 464.684C1211.74 464.684 1211.44 464.684 1211.13 464.684C1210.38 464.684 1209.77 464.684 1209.62 464.684C1209.32 464.684 1209.32 465.024 1209.16 465.364C1209.16 465.704 1208.71 467.744 1208.56 468.424L1208.26 469.785L1207.95 470.805C1207.8 471.315 1207.8 471.485 1207.5 471.485H1205.83C1205.68 471.485 1205.68 471.485 1205.68 471.315C1205.68 471.145 1205.68 470.975 1205.83 470.805C1205.98 470.465 1205.98 470.465 1206.29 469.615C1206.59 468.765 1207.35 465.704 1207.65 464.344C1207.95 462.813 1208.41 461.113 1208.71 460.093C1209.01 459.072 1209.16 458.392 1209.47 456.862C1209.92 455.332 1210.22 453.801 1210.53 452.611L1211.28 449.891C1211.44 448.53 1211.74 447.85 1211.89 447.51ZM1214.92 459.413C1214.92 459.413 1214.92 459.243 1214.77 459.072C1214.62 458.732 1213.71 456.352 1213.41 455.332C1212.95 454.311 1212.8 453.461 1212.65 453.291C1212.5 452.781 1212.34 452.611 1212.19 452.611C1212.04 452.611 1212.04 453.291 1211.89 453.801C1211.74 454.311 1211.28 456.012 1211.13 456.692C1210.98 457.372 1210.68 458.392 1210.53 458.902C1210.53 459.072 1210.38 459.243 1210.38 459.413C1210.38 459.583 1210.38 459.583 1210.68 459.583C1210.98 459.583 1213.71 459.583 1214.16 459.413C1214.62 459.583 1214.92 459.583 1214.92 459.413Z" fill="#2D46B9"/>
<path d="M1239.3 470.805C1239.3 471.145 1239.15 471.315 1238.7 471.315C1238.09 471.315 1234 471.145 1232.94 471.145C1232.03 471.145 1229.31 471.315 1228.1 471.315C1227.79 471.315 1227.64 471.315 1227.64 471.315C1227.49 471.315 1227.19 471.315 1227.04 471.315C1226.28 471.315 1225.37 471.315 1224.76 471.315C1224.16 471.315 1224.31 471.145 1224.31 470.465C1224.31 469.955 1224.46 465.364 1224.46 464.514C1224.46 463.834 1224.31 461.623 1224.31 460.603C1224.31 462.133 1224.61 455.162 1224.61 454.142V450.401C1224.61 450.061 1224.61 448.7 1224.61 448.36C1224.61 448.02 1225.07 448.19 1225.37 448.19C1225.67 448.19 1225.82 448.19 1226.43 448.19C1226.58 448.19 1226.58 448.19 1226.73 448.19C1226.88 448.19 1226.89 448.19 1226.89 448.53C1226.89 448.87 1226.73 454.482 1226.73 455.502V460.263C1226.73 460.773 1226.73 462.303 1226.73 463.323C1226.73 463.664 1226.73 464.004 1226.73 464.174C1226.73 464.514 1226.73 464.684 1226.73 464.684C1226.73 464.854 1226.73 464.854 1226.73 464.854H1227.49C1227.95 464.854 1228.55 464.854 1229.01 464.854C1230.07 464.854 1233.4 464.854 1234.46 464.854C1235.52 464.854 1238.55 465.024 1238.85 465.024C1239.15 465.024 1239.15 465.194 1239.15 465.194C1239.15 465.364 1239.15 465.364 1239.15 465.534V467.064C1239 467.574 1239.3 470.465 1239.3 470.805Z" fill="#2D46B9"/>
<path d="M1244.15 471.145C1243.55 471.145 1243.24 471.145 1243.09 471.145C1242.79 471.145 1242.79 471.145 1242.79 470.975C1242.79 470.805 1242.94 470.805 1242.94 470.635C1243.09 470.295 1243.85 467.914 1244 467.404C1244.15 466.894 1244.61 465.534 1244.76 465.024C1244.91 464.514 1245.21 464.174 1245.06 463.834C1244.91 463.493 1244.61 461.793 1244.15 460.943C1243.85 460.093 1243.7 459.073 1243.24 458.052C1242.94 457.032 1241.27 451.591 1240.97 450.741C1240.67 449.891 1240.36 449.381 1240.36 449.04C1240.36 448.7 1240.82 448.7 1241.27 448.53C1241.42 448.53 1241.58 448.53 1241.73 448.53C1241.88 448.53 1242.18 448.53 1242.48 448.53C1243.09 448.53 1243.39 448.53 1243.7 448.53C1244.15 448.7 1244 448.87 1244.15 449.21C1244.3 449.551 1244.61 450.741 1244.91 451.931C1245.21 452.781 1245.51 454.142 1245.82 454.992C1246.12 455.672 1246.42 456.692 1246.57 457.542C1246.73 458.052 1246.88 458.562 1247.03 459.073L1247.33 458.222C1247.48 457.712 1247.63 457.202 1247.79 456.862L1248.09 455.842L1248.39 454.992C1248.39 454.822 1248.54 454.482 1248.69 454.142C1248.85 453.631 1249 453.291 1249 453.121C1249.3 452.441 1249.91 450.401 1250.06 449.381C1250.21 448.36 1250.81 448.36 1251.12 448.36C1251.42 448.36 1252.48 448.36 1252.94 448.36C1253.39 448.36 1253.54 448.53 1253.54 448.7C1253.54 448.87 1253.54 448.87 1253.54 449.04C1253.24 449.381 1252.78 451.591 1252.18 452.781C1251.72 453.971 1250.06 458.732 1249.6 460.093C1249.15 461.623 1247.03 467.404 1246.88 467.914C1246.73 468.425 1246.57 469.785 1246.42 470.295C1246.27 470.805 1246.12 470.975 1245.97 470.975H1245.21C1245.06 471.145 1244.76 471.145 1244.15 471.145Z" fill="#2D46B9"/>
<path d="M1267.02 460.943C1267.02 463.663 1267.47 468.595 1267.47 469.785C1267.63 471.145 1266.57 470.805 1264.9 470.805C1263.08 470.805 1258.84 470.635 1258.24 470.635C1257.93 470.635 1257.93 470.295 1257.93 469.955C1257.93 469.445 1258.08 468.595 1258.08 467.744C1258.08 467.234 1258.08 466.214 1258.08 464.684C1258.08 461.283 1258.24 456.012 1258.39 453.631C1258.39 452.781 1258.39 451.931 1258.39 451.251C1258.39 450.231 1258.39 449.381 1258.24 448.87C1257.93 448.87 1257.78 448.87 1257.78 448.87C1257.33 448.87 1255.66 448.87 1255.36 448.87C1255.21 448.87 1255.06 448.7 1255.06 448.36C1255.06 448.19 1255.06 447.85 1255.06 447.68C1255.06 447.34 1255.21 447.17 1255.36 447.17C1255.51 447.17 1255.81 447.17 1256.12 447.17H1262.32C1263.99 447.17 1269.14 447 1269.9 447C1270.5 447 1270.35 447.51 1270.35 448.02C1270.35 448.7 1270.05 448.7 1269.59 448.7C1269.14 448.7 1268.53 448.7 1267.17 448.7H1267.02C1267.17 451.591 1267.02 458.732 1267.02 460.943Z" fill="#2D46B9"/>
<path d="M1274.59 452.781C1274.59 454.482 1274.29 460.263 1274.29 461.963C1274.29 463.663 1274.44 469.445 1274.44 470.295C1274.44 470.465 1274.44 470.635 1274.44 470.805C1274.44 471.145 1274.29 471.315 1274.14 471.315C1273.99 471.485 1273.53 471.485 1273.23 471.485C1272.32 471.485 1272.47 471.655 1272.47 470.125C1272.47 468.935 1272.62 461.113 1272.62 458.902C1272.62 456.692 1272.93 450.401 1272.78 449.551C1272.78 449.381 1272.78 449.04 1272.78 448.87C1272.78 448.36 1272.93 448.02 1273.23 448.02C1273.38 448.02 1273.84 448.02 1274.29 448.02C1274.59 448.02 1274.59 448.19 1274.59 448.53C1274.59 448.7 1274.59 449.04 1274.59 449.38C1274.59 449.721 1274.59 450.911 1274.59 452.781Z" fill="#2D46B9"/>
<path d="M1290.34 467.404C1290.34 467.574 1290.34 467.574 1290.19 467.744C1289.89 468.424 1288.22 471.485 1284.28 471.485C1280.5 471.485 1276.71 466.214 1276.71 459.413C1276.71 452.611 1280.35 447.85 1283.53 447.85C1286.86 447.85 1288.37 450.231 1288.68 450.741C1288.83 451.081 1288.98 451.251 1288.98 451.421C1288.98 451.591 1288.83 451.761 1288.68 451.931C1288.07 452.441 1287.16 453.291 1286.71 453.971C1286.41 454.482 1286.1 454.822 1285.8 454.822C1285.65 454.822 1285.5 454.652 1285.34 454.482C1284.74 453.801 1284.28 453.121 1283.53 453.121C1282.16 453.121 1280.35 454.822 1280.35 460.263C1280.35 465.704 1282.92 466.724 1283.83 466.724C1284.59 466.724 1285.5 465.874 1285.95 465.364C1286.1 465.194 1286.25 465.024 1286.41 465.024C1286.56 465.024 1286.56 465.024 1286.71 465.194L1289.13 466.724C1289.89 466.894 1290.34 467.064 1290.34 467.404Z" fill="#2D46B9"/>
<path d="M1299.43 449.721C1296.55 449.721 1295.34 451.421 1295.34 453.461C1295.34 455.502 1297.01 456.692 1298.52 457.542C1300.04 458.392 1304.88 459.413 1304.88 465.024C1304.88 470.635 1300.19 471.485 1297.61 471.485C1295.04 471.485 1293.07 469.445 1292.77 469.275C1292.46 469.105 1292.46 468.765 1292.61 468.765C1292.77 468.595 1293.07 467.744 1293.22 467.744C1293.37 467.744 1293.37 467.744 1293.83 468.254C1294.28 468.765 1296.1 469.785 1297.16 469.785C1298.22 469.785 1301.55 469.615 1301.55 465.874C1301.55 464.004 1299.28 462.983 1297.01 461.453C1294.73 460.093 1292.61 458.222 1292.61 454.652C1292.61 450.231 1296.4 448.02 1299.43 448.02C1302.31 448.02 1304.28 450.061 1304.58 450.401C1304.73 450.571 1304.88 450.741 1304.88 450.911C1304.88 451.081 1304.88 451.081 1304.73 451.251C1304.58 451.421 1304.28 452.271 1303.97 452.271C1303.82 452.271 1303.67 452.271 1303.52 452.101L1303.37 451.931C1302.91 451.251 1301.1 449.721 1299.43 449.721Z" fill="#2D46B9"/>
<path d="M87.2358 79.0796L94.2025 75.6789L89.5075 67.5172L82.9951 69.0475L74.6653 63.0963V52.7241H64.9724C64.9724 52.7241 64.9724 62.4162 64.9724 63.0963L57.5513 67.5172L53.1592 62.4161L47.1012 71.9381L51.6447 76.3591V90.8121L45.7381 94.5529L48.3128 101.014L54.2194 97.2734L62.5492 104.925L61.1861 111.896H71.4848L71.9392 105.435L81.1777 101.014L85.7213 105.435L92.2337 96.0832L87.6901 93.1926L87.2358 79.0796ZM69.3645 98.6337C62.2463 98.6337 56.4912 92.1724 56.4912 84.1807C56.4912 76.189 62.2463 69.7277 69.3645 69.7277C76.4827 69.7277 82.2379 76.189 82.2379 84.1807C82.2379 92.1724 76.4827 98.6337 69.3645 98.6337Z" fill="#2D46B9"/>
<path d="M1197.37 333.113L1196.77 329.712L1193.59 331.242V334.303L1190.86 337.534L1187.23 336.683L1186.47 340.934C1186.47 340.934 1189.8 341.784 1190.1 341.784L1191.01 345.355L1188.89 346.885L1191.77 350.286L1193.74 348.586L1198.74 349.776L1199.49 352.667L1201.92 351.987L1201.16 349.096L1204.49 346.035L1206.76 347.226L1207.67 342.635L1205.55 341.954L1204.79 337.534L1206.76 335.833L1204.04 332.262L1202.67 333.963L1197.37 333.113ZM1202.67 342.635C1202.07 345.695 1199.34 347.736 1196.62 347.056C1193.89 346.375 1192.07 343.315 1192.68 340.254C1193.28 337.193 1196.01 335.153 1198.74 335.833C1201.46 336.513 1203.28 339.574 1202.67 342.635Z" fill="#2D46B9"/>
<path d="M675.904 56.4007L675.299 53L672.118 54.5303V57.591L669.392 60.8216L665.757 59.9715L665 64.2223C665 64.2223 668.332 65.0725 668.635 65.0725L669.544 68.6433L667.423 70.1736L670.301 73.5743L672.27 71.8739L677.268 73.0642L678.025 75.9548L680.448 75.2746L679.691 72.384L683.023 69.3234L685.294 70.5136L686.203 65.9227L684.083 65.2425L683.326 60.8216L685.294 59.1213L682.568 55.5505L681.205 57.2509L675.904 56.4007ZM681.205 65.9227C680.6 68.9833 677.873 71.0238 675.147 70.3436C672.421 69.6635 670.604 66.6028 671.209 63.5422C671.815 60.4816 674.541 58.4411 677.268 59.1213C679.994 59.8014 681.811 62.8621 681.205 65.9227Z" fill="#2D46B9"/>
<path d="M70.2734 314.579H64.8211L65.5784 277.341L70.2734 270.199L65.7298 269.349L66.0327 257.957H63.6095V268.839L53.0079 266.799L56.3398 271.73L44.981 278.701V257.957H43.9209V279.381L33.6222 274.96L25.5953 296.045L25.1409 257.957H24.0807V295.195L17.114 288.053L6.2095 300.636L6.66385 257.787H5.45224L4.54354 302.506L0.151451 307.607L4.24063 311.008L4.08918 315.429H0V317.469L4.08918 317.299V320.87H5.9066V317.299L23.9293 316.789V320.87H25.7467V316.789L43.9209 316.279V320.87H44.981V316.279L63.761 315.769V320.87H64.8211L64.9726 315.599L72.2422 315.429L70.2734 314.579ZM23.9293 315.089L5.9066 315.429V311.688L16.3567 294.515L23.7778 302.166V315.089H23.9293ZM43.7694 314.919L25.5953 315.089L25.4438 303.696L27.867 306.247L36.3483 280.742L43.618 286.353V314.919H43.7694ZM63.6095 314.579L44.8296 314.919V285.673L58.1573 278.191L61.3377 283.802L63.6095 280.402V314.579Z" fill="#2D46B9"/>
<path d="M1295.97 164.437C1296.88 157.466 1297.63 148.624 1296.88 143.013C1295.36 132.641 1281.43 118.528 1281.43 118.528C1281.43 118.528 1270.22 133.491 1267.5 141.823C1265.98 146.924 1265.53 157.636 1265.68 165.458C1262.5 167.838 1255.68 174.81 1257.05 191.303C1261.89 182.801 1271.89 174.98 1271.89 174.98H1290.52C1295.21 176.85 1299.6 182.461 1304.6 190.793C1309.9 168.518 1295.97 164.437 1295.97 164.437ZM1270.68 172.259L1269.46 169.198C1269.77 162.057 1270.68 144.883 1271.89 141.313C1273.4 136.722 1280.67 125.329 1280.67 125.329C1280.67 125.329 1290.97 135.701 1292.48 142.163C1294 148.624 1291.58 170.899 1291.58 170.899L1270.68 172.259Z" fill="#2D46B9"/>
<path d="M1279.76 143.013C1278.4 144.373 1277.34 146.584 1277.95 149.474C1278.55 152.365 1279.61 153.725 1281.58 154.235C1283.55 154.575 1286.28 150.324 1286.58 148.794C1286.73 147.094 1284.46 143.693 1284.46 143.693L1279.76 143.013Z" fill="#2D46B9"/>
<path d="M1287.18 180.081H1276.88C1276.88 180.081 1272.04 181.781 1270.37 187.052C1268.71 192.493 1276.58 196.064 1276.28 196.064C1275.98 195.894 1274.01 190.453 1274.76 187.052C1275.52 183.481 1279.91 183.822 1279.16 186.712C1278.25 189.773 1278.4 197.084 1282.03 198.275C1285.67 199.295 1284.91 205.246 1284.91 206.096C1284.91 206.946 1288.09 200.485 1285.21 198.104C1282.34 195.724 1282.49 188.923 1285.21 188.923C1287.94 188.923 1288.85 195.894 1288.55 196.234C1288.24 196.574 1290.97 192.323 1290.52 189.773C1289.76 187.052 1287.18 180.081 1287.18 180.081Z" fill="#2D46B9"/>
<path d="M1278.4 208.987C1280.52 205.926 1278.7 200.485 1278.7 200.485C1278.7 200.485 1275.52 202.525 1278.4 208.987Z" fill="#2D46B9"/>
<path d="M1127.25 215.448L1128.61 211.537C1128.61 211.537 1125.59 210.177 1125.28 210.007L1124.98 206.266L1127.25 205.246L1124.98 201.505L1122.86 202.695L1118.16 200.485L1117.86 197.594L1115.44 197.764L1115.74 200.655L1112.11 202.866L1110.14 201.335L1108.62 205.586L1110.59 206.776V211.197L1108.47 212.387L1110.44 216.468L1112.11 215.108L1116.65 216.978V220.379L1119.98 219.699L1120.44 216.808L1123.62 214.258L1127.25 215.448ZM1122.56 210.857C1121.5 213.748 1118.62 215.108 1116.04 213.918C1113.47 212.728 1112.26 209.497 1113.32 206.606C1114.38 203.716 1117.26 202.355 1119.83 203.546C1122.4 204.736 1123.62 207.967 1122.56 210.857Z" fill="#2D46B9"/>
<path d="M1151.18 270.54H1174.81L1163.75 244.354L1151.18 270.54ZM1157.54 266.289L1163.6 253.876L1168.9 266.289H1157.54Z" fill="#2D46B9"/>
<path d="M1142.85 227.861L1134.07 237.893L1125.13 227.861L1122.4 230.921L1131.34 240.953L1122.4 250.986L1125.13 254.046L1134.07 244.014L1142.85 254.046L1145.58 250.986L1136.79 240.953L1145.58 230.921L1142.85 227.861Z" fill="#2D46B9"/>
<path d="M1153.91 208.137C1161.03 208.137 1166.63 201.675 1166.63 193.854C1166.63 185.862 1160.87 179.571 1153.91 179.571C1146.94 179.571 1141.19 186.032 1141.19 193.854C1141.19 201.675 1146.94 208.137 1153.91 208.137ZM1153.91 183.651C1158.91 183.651 1162.84 188.242 1162.84 193.684C1162.84 199.295 1158.75 203.716 1153.91 203.716C1148.91 203.716 1144.97 199.125 1144.97 193.684C1144.97 188.242 1148.91 183.651 1153.91 183.651Z" fill="#2D46B9"/>
<path d="M1191.22 225.263L1166.68 228.225L1167.08 232.452L1191.63 229.489L1191.22 225.263Z" fill="#2D46B9"/>
<path d="M1177.84 220.039C1179.35 220.039 1180.72 218.679 1180.72 216.808C1180.72 215.108 1179.5 213.578 1177.84 213.578C1176.32 213.578 1174.96 214.938 1174.96 216.808C1174.96 218.679 1176.32 220.039 1177.84 220.039Z" fill="#2D46B9"/>
<path d="M1180.71 235.852C1179.2 235.852 1177.84 237.213 1177.84 239.083C1177.84 240.953 1179.05 242.314 1180.71 242.314C1182.23 242.314 1183.59 240.953 1183.59 239.083C1183.59 237.213 1182.23 235.852 1180.71 235.852Z" fill="#2D46B9"/>
<path d="M785.992 60.9013C785.992 57.3305 783.417 54.4399 780.237 54.4399C777.056 54.4399 774.482 57.3305 774.482 60.9013C774.482 64.472 777.056 67.3626 780.237 67.3626C783.417 67.5326 785.992 64.642 785.992 60.9013Z" fill="#2D46B9"/>
<path d="M783.113 71.2735L780.084 80.4554L777.055 71.2735C771.148 74.1641 770.543 86.7467 770.543 86.7467L788.262 86.2366C788.111 86.0666 788.262 74.3341 783.113 71.2735Z" fill="#2D46B9"/>
<path d="M815.371 50.019C815.371 44.918 811.585 40.6671 807.042 40.6671C802.498 40.6671 798.712 44.918 798.712 50.019C798.712 55.1201 802.498 59.371 807.042 59.371C811.585 59.371 815.371 55.1201 815.371 50.019Z" fill="#2D46B9"/>
<path d="M812.345 65.4922C810.377 69.9132 807.045 77.0547 807.045 77.0547L802.653 64.8121C794.777 69.7431 793.111 86.5767 793.111 86.5767L818.404 85.7265C818.404 85.7265 818.555 71.1034 812.345 65.4922Z" fill="#2D46B9"/>
<path d="M778.721 70.4233C778.721 70.2532 779.933 73.6539 780.084 73.994C780.084 73.4839 780.841 70.0832 780.841 70.0832L778.721 70.4233Z" fill="#2D46B9"/>
<path d="M807.498 69.4031L809.77 63.2818C809.77 63.2818 807.801 62.0916 805.984 63.2818L807.498 69.4031Z" fill="#2D46B9"/>
<path d="M776.45 44.2378L781.448 36.2461L799.622 30.4649L804.469 34.3757V30.2949L817.645 30.1248C817.645 30.1248 817.645 13.6314 817.645 7L766 9.8906L767.515 34.3757L776.753 37.2663C776.753 37.0963 776.147 43.3876 776.45 44.2378ZM770.846 30.2949L769.18 12.4411L815.676 8.53032L814.919 27.2342L802.5 26.214L782.508 33.5255L770.846 30.2949Z" fill="#2D46B9"/>
<path d="M808.254 14.3116L776.752 15.6719V18.9025L808.254 17.8823V14.3116Z" fill="#2D46B9"/>
<path d="M791.291 20.6029L776.752 21.7932V24.8538L791.291 24.1737V20.6029Z" fill="#2D46B9"/>
<path d="M273.521 324.101C271.552 324.101 269.735 324.101 267.766 324.101C266.706 324.101 265.797 324.101 264.737 324.101C264.283 324.101 263.828 324.101 263.525 324.271C263.071 324.271 262.768 324.611 262.617 324.951C262.465 325.121 262.465 325.291 262.768 325.291C262.92 325.461 263.223 325.461 263.374 325.461C264.737 325.461 265.949 325.461 267.312 325.461C256.71 330.052 246.109 334.133 234.901 329.372C234.447 329.202 232.478 330.052 233.387 330.392C244.14 335.493 256.407 332.432 266.706 327.161C265.646 328.182 264.737 329.202 264.434 330.562C264.283 331.412 265.949 330.902 266.252 330.562C268.372 328.182 270.038 325.971 273.218 325.291C273.976 325.291 274.884 324.101 273.521 324.101Z" fill="#2D46B9"/>
<path d="M254.287 125.669C249.894 124.479 246.714 120.568 244.139 116.657C243.836 116.147 241.868 116.657 242.17 117.338C243.231 119.718 244.897 122.099 246.865 123.969C235.052 118.528 223.239 112.577 210.971 109.006C197.492 105.265 183.71 107.646 170.08 108.496C172.806 107.816 175.532 106.625 178.107 105.605C179.015 105.265 178.864 104.415 177.804 104.585C173.26 105.435 169.171 107.986 164.476 107.986C163.87 107.986 162.659 108.836 163.113 109.176C163.113 109.346 163.113 109.516 163.264 109.516C162.961 109.856 162.961 110.026 163.719 110.026C164.022 110.026 164.324 110.026 164.627 110.026C169.019 111.726 173.412 114.277 178.107 114.787C178.561 114.787 180.227 113.937 179.167 113.597C176.138 112.747 173.109 111.046 170.08 109.856C183.256 109.176 196.281 107.305 209.457 110.536C221.876 113.597 233.235 120.738 245.199 125.499C243.534 125.669 241.716 125.839 240.05 126.519C238.99 126.86 239.293 127.88 240.353 127.71C244.594 127.03 248.683 127.37 252.923 127.37C253.529 127.2 255.801 126.009 254.287 125.669Z" fill="#2D46B9"/>
<path d="M33.015 195.554C33.3179 196.404 35.5896 195.894 35.4382 194.874C34.2266 187.562 33.4693 181.271 33.7722 173.789C33.7722 173.449 33.4693 173.279 33.015 173.279C33.015 172.429 30.8946 172.939 30.7432 173.619C28.6229 178.89 25.8967 184.842 25.1395 190.623C24.988 191.643 27.1084 190.963 27.2598 190.283C28.1685 187.902 29.0772 185.352 29.9859 182.801C27.7142 196.914 26.9569 212.387 30.1374 225.99C29.0772 223.78 28.1685 221.399 27.7142 218.849C27.5627 217.999 25.2909 218.509 25.4424 219.529C25.8967 224.63 28.9258 228.881 30.1374 233.642C30.4403 234.662 32.5606 233.812 32.8635 233.132C34.378 229.221 34.5295 224.46 34.5295 220.209C34.5295 219.359 32.5606 220.039 32.4091 220.719C32.4091 220.889 32.4091 220.889 32.4091 221.059C31.5004 211.197 31.349 201.675 31.9548 191.813C32.2577 193.343 32.5606 194.534 33.015 195.554Z" fill="#2D46B9"/>
<path d="M36.3487 411.329C36.3487 410.649 34.3798 411.159 34.2284 411.669C33.6226 415.75 33.4711 419.661 32.8653 423.742C31.1994 398.236 32.1081 373.071 31.8052 347.566C31.8052 346.886 29.8363 347.226 29.8363 348.076C29.3819 372.731 26.5044 398.406 30.2906 422.891C28.7761 419.321 27.716 415.58 26.8073 411.839C26.8073 411.669 26.8073 411.669 26.8073 411.499C26.8073 411.329 26.8073 411.329 26.6558 411.159L26.5044 410.989C26.05 410.819 24.3841 410.989 24.3841 411.839C24.8384 418.3 27.4131 425.612 31.3508 430.373C31.9566 431.223 33.774 430.373 34.0769 429.523C36.3487 424.252 36.6516 417.45 36.3487 411.329Z" fill="#2D46B9"/>
<path d="M1041.83 468.801C1039.41 467.101 1036.08 466.25 1033.35 466.421C1032.59 466.421 1030.93 467.611 1032.44 467.781C1035.17 467.951 1037.59 469.481 1040.32 469.991C1040.77 469.991 1042.59 469.311 1041.83 468.801Z" fill="#2D46B9"/>
<path d="M130.701 308.627C118.282 305.397 108.135 297.065 96.3221 292.474C96.1706 292.474 96.1706 292.304 96.0192 292.304C100.108 292.644 104.349 292.814 108.135 291.454C109.044 291.114 109.498 290.094 108.135 290.264C103.592 290.774 99.1996 290.604 94.8076 290.774C94.8076 290.774 94.8076 290.604 94.6561 290.604C94.5047 290.264 94.0503 290.264 93.8988 290.264C93.4445 290.264 92.8387 290.434 92.3843 290.774C91.7785 290.774 89.9611 291.624 91.1727 291.964C91.6271 292.134 91.93 292.304 92.2329 292.474C92.6872 293.494 93.4445 294.685 93.8988 295.195C94.8076 296.555 96.0192 298.085 97.5337 298.595C97.8366 298.765 99.8054 298.595 99.5025 297.745C99.3511 297.405 99.0482 297.065 98.7453 296.725C98.8967 296.725 99.0482 296.895 99.1996 296.895C99.3511 296.895 99.8054 296.895 100.26 296.725C109.498 302.166 118.737 308.117 129.187 309.818C129.944 309.988 132.065 308.968 130.701 308.627Z" fill="#2D46B9"/>
<path d="M84.0548 386.164C83.146 384.973 80.7228 385.143 79.5112 385.143C77.088 385.143 74.6648 385.314 72.393 385.994C71.3329 386.334 71.03 387.524 72.393 387.354C75.8764 386.844 79.0569 386.844 82.5402 387.354C82.6917 387.184 84.6606 386.844 84.0548 386.164Z" fill="#2D46B9"/>
<path d="M121.009 527.973C117.374 528.313 113.588 529.844 110.104 531.204C108.136 531.884 103.441 533.584 103.138 536.475C102.986 537.495 104.955 536.815 105.258 536.305C109.499 530.864 116.465 532.394 121.615 528.993C122.372 528.313 121.766 527.803 121.009 527.973Z" fill="#2D46B9"/>
<path d="M323.348 419.831C321.531 419.151 319.865 418.3 318.199 417.28C316.533 416.26 315.17 414.73 313.655 413.539C313.352 413.199 311.838 413.539 311.989 414.22C312.292 415.75 313.958 416.77 315.018 417.62C315.321 417.96 315.776 418.13 316.079 418.3C294.27 413.369 277.913 397.726 261.253 382.083C263.071 382.593 265.04 382.933 266.857 382.593C267.614 382.423 268.826 381.403 267.463 381.233C262.768 380.893 259.284 378.682 255.044 376.642C254.892 376.472 254.438 376.642 254.135 376.642C253.378 376.472 251.712 377.152 252.318 377.662C253.378 378.852 254.438 380.042 255.347 381.403C256.407 382.933 257.164 384.803 258.376 386.164C258.83 386.674 260.496 386.334 260.345 385.484C260.345 385.143 260.193 384.633 260.042 384.293C276.095 401.297 296.39 418.47 318.502 420.171C318.653 420.171 318.956 420.001 319.259 420.001C319.562 420.171 319.865 420.341 320.168 420.341C316.987 421.701 313.655 421.531 310.475 422.551C309.415 422.891 308.96 423.912 310.475 423.912C314.716 423.571 319.411 422.891 323.197 420.681C323.5 420.851 323.954 420.171 323.348 419.831Z" fill="#2D46B9"/>
<path d="M927.95 41.0189C922.649 41.699 916.742 41.1889 911.441 42.3792C910.987 42.5492 910.078 43.2294 910.987 43.5694C913.107 44.2496 915.834 43.5694 917.954 43.3994C918.56 43.3994 919.014 43.3994 919.62 43.2294C890.541 52.7513 860.857 68.3946 840.108 93.5599C839.502 94.41 841.622 94.07 842.077 93.5599C863.431 69.2448 890.844 55.1318 919.317 44.7597C916.894 46.12 914.622 47.8203 913.107 50.2008C912.35 51.221 914.925 50.8809 915.228 50.5409C919.014 46.6301 923.558 44.2496 928.404 42.3792C929.464 41.8691 929.161 40.8489 927.95 41.0189Z" fill="#2D46B9"/>
<path d="M1028.79 164.255C1024.7 166.466 1020.61 168.336 1016.52 170.376C1015.16 171.056 1016.37 171.737 1017.28 171.397C1020.61 170.206 1023.79 168.506 1026.97 166.976C1026.67 167.486 1026.36 167.996 1026.06 168.506C1025.61 168.506 1024.85 168.676 1024.7 168.846C1016.52 177.348 1009.25 186.53 1001.22 195.202C1000.31 196.222 1002.43 196.052 1003.04 195.542C1010.46 188.23 1017.58 180.068 1024.24 171.907C1022.73 175.137 1021.82 178.368 1023.49 180.578C1023.94 181.089 1025.76 180.578 1025.76 179.728C1025 174.117 1028.18 169.356 1030.76 164.765C1031.36 163.575 1029.09 164.085 1028.79 164.255Z" fill="#2D46B9"/>
<path d="M1100.75 148.964C1102.41 149.644 1104.23 149.814 1106.05 149.814C1106.5 149.814 1108.02 148.794 1106.96 148.624C1104.23 148.284 1101.81 147.434 1099.38 145.904C1096.81 144.373 1095.6 142.333 1094.08 139.782C1093.78 139.272 1092.72 139.612 1092.42 140.122C1091.66 140.122 1090.9 140.633 1091.05 141.143C1092.87 145.564 1093.78 150.835 1096.2 154.915C1096.51 155.596 1098.63 154.915 1098.47 154.065C1097.87 152.025 1097.26 149.984 1096.51 147.944C1102.26 153.045 1104.84 161.547 1108.32 168.518C1108.62 169.198 1110.74 168.688 1110.59 167.838C1108.47 161.547 1105.29 153.895 1100.75 148.964Z" fill="#2D46B9"/>
<path d="M1005.33 83.8406C1005.33 83.8406 1009.57 51.1938 1043.2 51.3638C1043.2 43.8823 1043.2 43.8823 1043.2 43.8823C1043.2 43.8823 1001.85 37.931 999.274 83.8406C1002.3 83.8406 1005.33 83.8406 1005.33 83.8406Z" fill="#2D46B9"/>
<path d="M1043.2 43.8823C1043.2 43.8823 1067.88 46.9429 1065.61 85.2009C1061.82 85.2009 1061.82 85.2009 1061.82 85.2009C1061.82 85.2009 1058.79 51.5339 1043.19 51.5339C1043.19 43.8823 1043.2 43.8823 1043.2 43.8823Z" fill="#FF55BE"/>
<path d="M1031.23 83.8406L1029.26 87.4114L1035.17 91.3222L1068.18 76.189L1067.28 72.9583L1031.23 83.8406Z" fill="#2D46B9"/>
<path d="M1012 80.4399H1021.24V83.8406H1010.79L1012 80.4399Z" fill="#2D46B9"/>
<path d="M1025.32 59.8656L1030.32 65.3067L1028.2 67.6872L1022.6 61.736L1025.32 59.8656Z" fill="#2D46B9"/>
<path d="M1042.44 54.7645L1042.59 62.4161L1039.56 62.5862L1039.41 53.9144L1042.44 54.7645Z" fill="#2D46B9"/>
<path d="M1055.16 68.0273L1048.8 70.9179L1047.74 67.8572L1054.86 64.4565L1055.16 68.0273Z" fill="#2D46B9"/>
<path d="M1282.19 361.849H1279.16V351.647H1282.19V361.849ZM1282.19 341.444H1279.16V331.242H1282.19V341.444ZM1282.19 321.04H1279.16V310.838H1282.19V321.04ZM1282.19 300.636H1279.16V290.434H1282.19V300.636ZM1282.19 280.232H1279.16V270.03H1282.19V280.232Z" fill="#2D46B9"/>
<path d="M1282.19 92.1723H1279.16V83.6706H1282.19V92.1723ZM1282.19 75.3388H1279.16V66.8371H1282.19V75.3388ZM1282.19 58.3353H1279.16V49.8335H1282.19V58.3353ZM1282.19 41.5018H1279.16V33H1282.19V41.5018Z" fill="#2D46B9"/>
<path d="M1286.12 270.539C1286.12 273.94 1283.7 276.661 1280.67 276.661C1277.64 276.661 1275.22 273.94 1275.22 270.539C1275.22 267.139 1277.64 264.418 1280.67 264.418C1283.7 264.588 1286.12 267.309 1286.12 270.539Z" fill="#2D46B9"/>
<path d="M915.37 72.1082C909.161 75.1688 902.345 83.3305 900.68 90.8121C900.528 91.4922 902.345 91.1521 902.497 90.642C904.617 83.5006 910.827 76.8692 916.279 72.9584C917.339 72.1082 915.976 71.7681 915.37 72.1082Z" fill="#2D46B9"/>
<path d="M1134.06 43.8823C1134.06 43.0321 1131.79 43.5422 1131.79 44.5624C1131.79 47.113 1132.25 49.6635 1132.85 52.214C1133.46 55.2747 1134.22 59.0154 1136.03 61.566C1136.49 62.0761 1138.15 61.566 1138 60.8858C1137.09 55.2747 1134.52 49.8335 1134.06 43.8823Z" fill="#2D46B9"/>
<path d="M591.416 108.326C588.841 113.767 585.812 119.888 586.721 126.349C586.873 127.2 588.69 126.519 588.841 125.839C589.447 122.609 589.447 119.548 590.204 116.487C590.962 113.597 592.022 110.706 593.082 107.986C593.385 107.476 591.719 107.816 591.416 108.326Z" fill="#2D46B9"/>
</svg>
