<svg width="33" height="33" viewBox="0 0 33 33" fill="none" xmlns="http://www.w3.org/2000/svg">
<path d="M16.5 24C14.425 24 12.6565 23.2685 11.1945 21.8055C9.7325 20.3425 9.001 18.574 9 16.5C8.999 14.426 9.7305 12.6575 11.1945 11.1945C12.6585 9.7315 14.427 9 16.5 9C18.573 9 20.342 9.7315 21.807 11.1945C23.272 12.6575 24.003 14.426 24 16.5C23.997 18.574 23.2655 20.343 21.8055 21.807C20.3455 23.271 18.577 24.002 16.5 24ZM6 18H0V15H6V18ZM33 18H27V15H33V18ZM15 6V0H18V6H15ZM15 33V27H18V33H15ZM8.1 10.125L4.3125 6.4875L6.45 4.275L10.05 8.025L8.1 10.125ZM26.55 28.725L22.9125 24.9375L24.9 22.875L28.6875 26.5125L26.55 28.725ZM22.875 8.1L26.5125 4.3125L28.725 6.45L24.975 10.05L22.875 8.1ZM4.275 26.55L8.0625 22.9125L10.125 24.9L6.4875 28.6875L4.275 26.55Z" fill="white"/>
</svg>
